


<svg viewBox="-50 -50 100 100" xmlns="http://www.w3.org/2000/svg" version="1.1">
<style>
  path { fill: #6967FE; }
  @media (prefers-color-scheme: dark) {
    path { fill: #ffffff; }
  }
</style>
    <path d="M 50 0 L 49.996192233918954 6.605377816083557 L 49.984768355447436 9.340703493648238 L 49.9657266222201 11.438526592501308 L 49.9390641246866 13.205725438623706 L 49.904776777672936 14.761075735499274 L 49.86285930851422 16.16543096144157 L 49.8133052417053 17.454894972839817 L 49.75610687999942 18.652955594225908 L 49.691255281868706 19.77589852827368 L 49.618740235222816 20.83555720798764 L 49.53855022726402 21.84084449927159 L 49.450672410337496 22.798667220791618 L 49.35509256361584 23.71450264837242 L 49.25179505043437 24.59277818789836 L 49.140762771070925 25.437130592036162 L 49.02197711073878 26.250588365644262 L 48.89541788253362 27.03570346424968 L 48.76106326504667 27.794648512571058 L 48.618889734323346 28.52928996913333 L 48.46887198981189 29.241244130750864 L 48.31098287390772 29.931920651091716 L 48.14519328465687 30.602556813766068 L 47.971472081134856 31.25424485127075 L 47.78978598096566 31.88795395897172 L 47.60009944938797 32.50454821023896 L 47.40237457921193 33.10480126768161 L 47.19657096093867 33.689408563358114 L 46.98264554223525 34.25899746000643 L 46.760552475868906 34.814135787289665 L 46.53024295510498 35.35533905932737 L 46.29166503546055 35.88307661384591 L 46.04476344158003 36.397776863196086 L 45.789479357856436 36.89983180906883 L 45.52575020126087 37.38960094300108 L 45.25350937466043 37.86741463154853 L 44.97268599869668 38.33357706673332 L 44.6832046200609 38.78836884789203 L 44.384984893731854 39.23204924948664 L 44.07794123643285 39.66485822014991 L 43.761982448210055 40.087018150722415 L 43.43701129862563 40.49873544292794 L 43.10292407358793 40.90020190533472 L 42.759610078296156 41.291595999140625 L 42.4069510911434 41.67308395292449 L 42.04482076268573 42.044820762685724 L 41.6730839529245 42.40695109114339 L 41.291595999140625 42.759610078296156 L 40.90020190533472 43.10292407358793 L 40.498735442927945 43.43701129862562 L 40.087018150722415 43.761982448210055 L 39.66485822014991 44.07794123643284 L 39.23204924948664 44.384984893731854 L 38.78836884789203 44.6832046200609 L 38.33357706673332 44.97268599869668 L 37.86741463154853 45.25350937466043 L 37.38960094300108 45.52575020126087 L 36.899831809068836 45.78947935785643 L 36.397776863196086 46.04476344158003 L 35.88307661384592 46.29166503546055 L 35.35533905932738 46.53024295510498 L 34.814135787289665 46.760552475868906 L 34.25899746000643 46.98264554223524 L 33.689408563358114 47.19657096093867 L 33.10480126768161 47.40237457921193 L 32.50454821023896 47.60009944938797 L 31.88795395897173 47.78978598096566 L 31.254244851270762 47.971472081134856 L 30.602556813766068 48.14519328465687 L 29.93192065109172 48.31098287390772 L 29.241244130750864 48.46887198981188 L 28.529289969133337 48.618889734323346 L 27.794648512571058 48.76106326504667 L 27.03570346424968 48.89541788253362 L 26.250588365644262 49.02197711073878 L 25.437130592036162 49.140762771070925 L 24.592778187898368 49.25179505043437 L 23.714502648372417 49.35509256361584 L 22.79866722079163 49.45067241033749 L 21.840844499271594 49.53855022726402 L 20.835557207987648 49.618740235222816 L 19.775898528273686 49.691255281868706 L 18.652955594225926 49.756106879999415 L 17.454894972839817 49.8133052417053 L 16.16543096144157 49.86285930851422 L 14.76107573549927 49.904776777672936 L 13.20572543862372 49.9390641246866 L 11.438526592501322 49.9657266222201 L 9.340703493648254 49.984768355447436 L 6.605377816083531 49.996192233918954 L 3.912554790586569e-7 50 L -6.605377816083551 49.996192233918954 L -9.340703493648208 49.984768355447436 L -11.438526592501285 49.9657266222201 L -13.205725438623709 49.9390641246866 L -14.76107573549928 49.904776777672936 L -16.165430961441558 49.862859308514224 L -17.454894972839806 49.81330524170531 L -18.652955594225904 49.75610687999942 L -19.775898528273693 49.6912552818687 L -20.83555720798764 49.618740235222816 L -21.84084449927159 49.53855022726402 L -22.79866722079161 49.450672410337496 L -23.71450264837241 49.35509256361584 L -24.59277818789836 49.25179505043437 L -25.437130592036166 49.140762771070925 L -26.250588365644255 49.02197711073878 L -27.03570346424967 48.89541788253363 L -27.794648512571058 48.76106326504667 L -28.52928996913332 48.618889734323346 L -29.241244130750864 48.46887198981189 L -29.931920651091716 48.31098287390772 L -30.602556813766068 48.14519328465687 L -31.254244851270744 47.971472081134856 L -31.88795395897172 47.78978598096567 L -32.50454821023895 47.600099449387976 L -33.10480126768161 47.40237457921193 L -33.68940856335811 47.19657096093867 L -34.25899746000642 46.982645542235254 L -34.81413578728966 46.760552475868906 L -35.35533905932737 46.53024295510498 L -35.883076613845915 46.29166503546055 L -36.39777686319608 46.04476344158003 L -36.89983180906883 45.78947935785643 L -37.38960094300107 45.52575020126087 L -37.86741463154851 45.25350937466044 L -38.33357706673331 44.97268599869668 L -38.78836884789203 44.6832046200609 L -39.23204924948664 44.384984893731854 L -39.6648582201499 44.07794123643285 L -40.087018150722415 43.761982448210055 L -40.49873544292795 43.43701129862561 L -40.90020190533472 43.10292407358793 L -41.291595999140625 42.759610078296156 L -41.673083952924486 42.406951091143405 L -42.044820762685724 42.04482076268573 L -42.4069510911434 41.67308395292449 L -42.759610078296156 41.291595999140625 L -43.10292407358792 40.90020190533472 L -43.43701129862562 40.498735442927945 L -43.76198244821005 40.08701815072242 L -44.07794123643284 39.66485822014992 L -44.384984893731854 39.23204924948665 L -44.683204620060906 38.78836884789202 L -44.97268599869668 38.333577066733326 L -45.253509374660425 37.867414631548534 L -45.52575020126087 37.38960094300108 L -45.789479357856436 36.89983180906882 L -46.04476344158003 36.397776863196086 L -46.29166503546055 35.88307661384592 L -46.53024295510498 35.35533905932737 L -46.760552475868906 34.814135787289665 L -46.98264554223524 34.25899746000644 L -47.19657096093867 33.689408563358114 L -47.40237457921193 33.1048012676816 L -47.60009944938797 32.50454821023896 L -47.78978598096566 31.887953958971732 L -47.971472081134856 31.25424485127077 L -48.14519328465686 30.60255681376608 L -48.31098287390772 29.931920651091716 L -48.46887198981188 29.24124413075087 L -48.618889734323346 28.529289969133348 L -48.76106326504667 27.79464851257106 L -48.89541788253362 27.03570346424969 L -49.02197711073878 26.250588365644283 L -49.140762771070925 25.437130592036173 L -49.25179505043437 24.59277818789836 L -49.35509256361584 23.714502648372406 L -49.450672410337496 22.798667220791618 L -49.53855022726402 21.840844499271597 L -49.618740235222816 20.83555720798764 L -49.6912552818687 19.77589852827369 L -49.756106879999415 18.65295559422593 L -49.8133052417053 17.45489497283982 L -49.86285930851422 16.16543096144159 L -49.904776777672936 14.761075735499313 L -49.9390641246866 13.205725438623727 L -49.9657266222201 11.438526592501304 L -49.984768355447436 9.340703493648203 L -49.996192233918954 6.605377816083544 L -50 5.533188048375352e-7 L -49.996192233918954 -6.605377816083497 L -49.984768355447436 -9.34070349364823 L -49.9657266222201 -11.43852659250128 L -49.9390641246866 -13.205725438623661 L -49.904776777672936 -14.761075735499254 L -49.862859308514224 -16.165430961441537 L -49.8133052417053 -17.454894972839835 L -49.756106879999415 -18.652955594225915 L -49.691255281868706 -19.77589852827367 L -49.618740235222816 -20.83555720798765 L -49.53855022726402 -21.840844499271583 L -49.450672410337496 -22.798667220791607 L -49.35509256361584 -23.714502648372417 L -49.25179505043437 -24.592778187898347 L -49.14076277107093 -25.43713059203614 L -49.02197711073878 -26.250588365644255 L -48.89541788253363 -27.035703464249654 L -48.76106326504667 -27.794648512571072 L -48.618889734323346 -28.529289969133337 L -48.46887198981189 -29.24124413075086 L -48.31098287390772 -29.93192065109172 L -48.14519328465687 -30.602556813766068 L -47.971472081134856 -31.254244851270744 L -47.78978598096567 -31.88795395897171 L -47.600099449387976 -32.50454821023895 L -47.40237457921194 -33.10480126768159 L -47.196570960938686 -33.68940856335809 L -46.98264554223524 -34.25899746000643 L -46.760552475868906 -34.81413578728966 L -46.53024295510498 -35.35533905932738 L -46.29166503546055 -35.88307661384591 L -46.04476344158003 -36.39777686319608 L -45.789479357856436 -36.89983180906883 L -45.52575020126087 -37.38960094300107 L -45.25350937466044 -37.86741463154851 L -44.97268599869669 -38.33357706673331 L -44.68320462006091 -38.788368847892016 L -44.38498489373186 -39.232049249486636 L -44.07794123643284 -39.66485822014991 L -43.761982448210055 -40.087018150722415 L -43.43701129862562 -40.498735442927945 L -43.10292407358793 -40.90020190533472 L -42.759610078296156 -41.291595999140625 L -42.40695109114339 -41.6730839529245 L -42.04482076268573 -42.044820762685724 L -41.67308395292451 -42.406951091143384 L -41.29159599914064 -42.75961007829615 L -40.90020190533472 -43.10292407358792 L -40.49873544292796 -43.43701129862561 L -40.08701815072242 -43.76198244821005 L -39.664858220149895 -44.077941236432856 L -39.232049249486636 -44.38498489373186 L -38.78836884789203 -44.6832046200609 L -38.333577066733326 -44.97268599869668 L -37.867414631548534 -45.253509374660425 L -37.38960094300109 -45.52575020126086 L -36.89983180906882 -45.789479357856436 L -36.39777686319609 -46.04476344158003 L -35.88307661384592 -46.29166503546055 L -35.35533905932739 -46.530242955104974 L -34.81413578728965 -46.76055247586891 L -34.25899746000643 -46.98264554223525 L -33.68940856335812 -47.19657096093867 L -33.104801267681616 -47.40237457921192 L -32.50454821023897 -47.60009944938796 L -31.88795395897172 -47.78978598096567 L -31.25424485127076 -47.971472081134856 L -30.60255681376608 -48.14519328465686 L -29.93192065109173 -48.31098287390771 L -29.241244130750893 -48.46887198981188 L -28.52928996913333 -48.618889734323346 L -27.79464851257106 -48.76106326504667 L -27.03570346424969 -48.89541788253362 L -26.25058836564425 -49.02197711073878 L -25.437130592036155 -49.140762771070925 L -24.59277818789836 -49.25179505043437 L -23.71450264837243 -49.35509256361584 L -22.798667220791646 -49.45067241033749 L -21.84084449927163 -49.53855022726402 L -20.83555720798764 -49.618740235222816 L -19.775898528273693 -49.6912552818687 L -18.652955594225876 -49.75610687999942 L -17.454894972839792 -49.81330524170531 L -16.165430961441558 -49.862859308514224 L -14.76107573549928 -49.904776777672936 L -13.20572543862373 -49.9390641246866 L -11.43852659250136 -49.9657266222201 L -9.34070349364833 -49.984768355447436 L -6.605377816083554 -49.996192233918954 L -6.776743684692947e-7 -50 L 6.605377816083485 -49.996192233918954 L 9.340703493648281 -49.984768355447436 L 11.43852659250132 -49.9657266222201 L 13.205725438623697 -49.9390641246866 L 14.761075735499249 -49.904776777672936 L 16.165430961441533 -49.862859308514224 L 17.45489497283983 -49.8133052417053 L 18.652955594225908 -49.75610687999942 L 19.775898528273668 -49.691255281868706 L 20.83555720798762 -49.61874023522282 L 21.840844499271554 -49.538550227264025 L 22.79866722079158 -49.450672410337496 L 23.714502648372417 -49.35509256361584 L 24.592778187898347 -49.251795050434374 L 25.437130592036176 -49.140762771070925 L 26.250588365644273 -49.02197711073878 L 27.03570346424967 -48.89541788253362 L 27.79464851257105 -48.76106326504667 L 28.529289969133316 -48.61888973432335 L 29.241244130750836 -48.46887198981189 L 29.931920651091687 -48.31098287390772 L 30.602556813766068 -48.14519328465687 L 31.25424485127074 -47.971472081134856 L 31.88795395897174 -47.78978598096566 L 32.504548210238966 -47.60009944938797 L 33.10480126768161 -47.40237457921193 L 33.68940856335811 -47.19657096093867 L 34.25899746000642 -46.982645542235254 L 34.81413578728964 -46.76055247586891 L 35.35533905932738 -46.53024295510498 L 35.88307661384591 -46.29166503546055 L 36.39777686319608 -46.04476344158004 L 36.899831809068814 -45.789479357856436 L 37.38960094300106 -45.525750201260884 L 37.86741463154853 -45.25350937466043 L 38.33357706673331 -44.97268599869669 L 38.788368847892016 -44.68320462006091 L 39.23204924948666 -44.38498489373185 L 39.66485822014991 -44.07794123643284 L 40.087018150722415 -43.761982448210055 L 40.49873544292794 -43.43701129862563 L 40.900201905334704 -43.102924073587936 L 41.29159599914061 -42.75961007829617 L 41.67308395292448 -42.40695109114341 L 42.04482076268572 -42.04482076268573 L 42.406951091143384 -41.67308395292451 L 42.75961007829616 -41.29159599914062 L 43.10292407358793 -40.90020190533472 L 43.43701129862562 -40.498735442927945 L 43.76198244821005 -40.08701815072242 L 44.077941236432835 -39.66485822014992 L 44.38498489373185 -39.232049249486664 L 44.6832046200609 -38.78836884789203 L 44.97268599869668 -38.333577066733326 L 45.253509374660425 -37.867414631548534 L 45.52575020126086 -37.38960094300109 L 45.789479357856436 -36.89983180906882 L 46.04476344158002 -36.397776863196114 L 46.29166503546055 -35.88307661384592 L 46.530242955104974 -35.35533905932739 L 46.760552475868906 -34.81413578728965 L 46.98264554223524 -34.25899746000643 L 47.19657096093867 -33.68940856335812 L 47.40237457921194 -33.10480126768159 L 47.60009944938796 -32.50454821023897 L 47.78978598096567 -31.88795395897172 L 47.97147208113484 -31.25424485127079 L 48.14519328465686 -30.60255681376608 L 48.31098287390771 -29.931920651091737 L 48.46887198981189 -29.24124413075086 L 48.61888973432334 -28.52928996913337 L 48.76106326504667 -27.79464851257107 L 48.89541788253363 -27.035703464249654 L 49.02197711073878 -26.25058836564429 L 49.140762771070925 -25.437130592036155 L 49.25179505043437 -24.592778187898368 L 49.35509256361584 -23.714502648372438 L 49.45067241033749 -22.79866722079165 L 49.53855022726402 -21.84084449927158 L 49.618740235222816 -20.8355572079877 L 49.6912552818687 -19.775898528273697 L 49.756106879999415 -18.652955594225936 L 49.8133052417053 -17.454894972839863 L 49.86285930851422 -16.165430961441565 L 49.904776777672936 -14.761075735499285 L 49.9390641246866 -13.205725438623652 L 49.9657266222201 -11.438526592501367 L 49.984768355447436 -9.34070349364822 L 49.996192233918954 -6.605377816083734 Z" fill="currentColor"></path>
</svg>
