<svg data-v-d1d3d0d7="" id="superellipse" viewBox="-60 -60 120 120" xmlns="http://www.w3.org/2000/svg" version="1.1" style="transform: rotate(0deg); stroke-width: 0px;"><path d="M 50 0 L 49.97824524218679 9.901753982305243 L 49.91302450632697 13.06464670172324 L 49.80446829875457 15.363496641172055 L 49.65279377560474 17.234703316482328 L 49.45830421210203 18.8403257576786 L 49.221388261403234 20.261137814271386 L 48.94251900482847 21.544072051614734 L 48.62225279582979 22.719152459417618 L 48.261227900557564 23.80690729980902 L 47.86016293838738 24.822075733697243 L 47.41985512626475 25.77564503582721 L 46.94117833121011 26.676052806108626 L 46.42508093580089 27.529937000336695 L 45.872583521909 28.342625284573163 L 45.284776378421284 29.1184663042796 L 44.66281683910515 29.86106097890372 L 44.0079264572004 30.573428299186855 L 43.32138802372127 31.25812690024582 L 42.60454243683757 31.917345984787914 L 41.858785430070824 32.55297451444849 L 41.08556416738864 33.166654679667886 L 40.28637371360736 33.759823791368575 L 39.462753388819415 34.3337475085391 L 38.61628301584575 34.88954648856273 L 37.74857906997543 35.428217979166966 L 36.86129074049237 35.950653473871455 L 35.956095913704324 36.457653270756246 L 35.03469708737843 36.94993857097907 L 34.09881722665307 37.428161604792365 L 33.15019557163549 37.89291416275995 L 32.190583407007985 38.34473482746922 L 31.22173980405393 38.784115138668696 L 30.24542734557561 39.21150487709069 L 29.263407844210974 39.62731661544322 L 28.277438064664608 40.031929656439345 L 27.28926546034898 40.42569345528552 L 26.30062393488718 40.80893060630906 L 25.313229638855262 41.18193945928371 L 24.32877681204351 41.544996419695664 L 23.34893368139035 41.89835797806821 L 22.375338424590048 42.24226250606078 L 21.409595209197324 42.57693185102013 L 20.45327031684777 42.902572755709514 L 19.50788836198259 43.21937812585987 L 18.574928614211856 43.527528164806206 L 17.65582143316964 43.82719139165994 L 16.75194482441039 44.11852555711695 L 15.864621124567279 44.40167846902895 L 14.995113823640537 44.67678873820384 L 14.144624531908976 44.943986453495526 L 13.31429009855865 45.20339379405082 L 12.505179888702134 45.455125585565256 L 11.718293225018147 45.699289806531404 L 10.954556999775802 45.93598804971906 L 10.214823462520137 46.16531594348662 L 9.499868188185356 46.38736353697096 L 8.81038822986997 46.60221565272549 L 8.14700045995171 46.80995220996197 L 7.510240102640535 47.01064852119137 L 6.900559460461331 47.2043755647451 L 6.318326836525098 47.39120023538288 L 5.76382565378186 47.5711855749536 L 5.2372537717499705 47.744390984863415 L 4.738723000476775 47.91087242191965 L 4.268258810699313 48.070682578954724 L 3.8258002383308463 48.22387105148902 L 3.4111999804869613 48.370484491562756 L 3.0242246792672427 48.510566749752655 L 2.664555388402387 48.644159006287246 L 2.3317882166313195 48.771299892083775 L 2.0254351402479136 48.89202560044825 L 1.7449249755934395 49.006369990107565 L 1.4896045002909322 49.11436468017681 L 1.2587397096073747 49.21603913760623 L 1.0515171913281811 49.31142075759878 L 0.8670455986996694 49.40053493744128 L 0.7043571959877627 49.483405144148286 L 0.562409444479077 49.56005297627791 L 0.44008658747503165 49.63049822024273 L 0.33620117964875584 49.69475890140536 L 0.24949548678987218 49.7528513302177 L 0.17864265252914271 49.80479014363481 L 0.12224748195261625 49.850588342007754 L 0.07884661424302228 49.89025732163584 L 0.04690771889174067 49.92380690313551 L 0.02482708730394836 49.9512453557617 L 0.010924436469762329 49.97257941779748 L 0.003432386513649238 49.98781431310791 L 0.00047391394223518036 49.99695376393593 L 2.377158635100148e-45 50 L -0.00047391394223518816 49.99695376393593 L -0.0034323865136491405 49.98781431310791 L -0.010924436469762124 49.97257941779748 L -0.02482708730394824 49.9512453557617 L -0.046907718891740814 49.92380690313551 L -0.07884661424302201 49.89025732163584 L -0.12224748195261591 49.850588342007754 L -0.1786426525291415 49.80479014363481 L -0.2494954867898727 49.7528513302177 L -0.33620117964875523 49.69475890140536 L -0.440086587475031 49.63049822024273 L -0.5624094444790745 49.56005297627791 L -0.7043571959877617 49.483405144148286 L -0.8670455986996681 49.40053493744128 L -1.0515171913281824 49.31142075759878 L -1.2587397096073731 49.21603913760623 L -1.4896045002909306 49.11436468017681 L -1.7449249755934377 49.006369990107565 L -2.0254351402479083 48.89202560044825 L -2.3317882166313177 48.771299892083775 L -2.6645553884023845 48.644159006287246 L -3.0242246792672454 48.510566749752655 L -3.411199980486953 48.37048449156276 L -3.825800238330842 48.22387105148902 L -4.26825881069931 48.070682578954724 L -4.738723000476777 47.91087242191964 L -5.237253771749967 47.744390984863415 L -5.763825653781849 47.57118557495361 L -6.318326836525094 47.39120023538288 L -6.900559460461318 47.2043755647451 L -7.51024010264053 47.01064852119138 L -8.147000459951705 46.80995220996197 L -8.810388229869965 46.60221565272549 L -9.499868188185351 46.38736353697096 L -10.21482346252012 46.165315943486625 L -10.954556999775795 45.93598804971906 L -11.718293225018147 45.6992898065314 L -12.505179888702134 45.455125585565256 L -13.314290098558637 45.203393794050825 L -14.144624531908976 44.943986453495526 L -14.995113823640551 44.67678873820384 L -15.864621124567279 44.40167846902895 L -16.751944824410387 44.11852555711695 L -17.655821433169617 43.827191391659944 L -18.57492861421185 43.527528164806206 L -19.50788836198259 43.21937812585986 L -20.45327031684776 42.902572755709514 L -21.409595209197306 42.57693185102013 L -22.37533842459004 42.24226250606078 L -23.34893368139034 41.898357978068226 L -24.328776812043493 41.54499641969568 L -25.31322963885525 41.18193945928372 L -26.30062393488719 40.80893060630906 L -27.289265460348965 40.42569345528552 L -28.277438064664583 40.03192965643936 L -29.263407844210974 39.62731661544322 L -30.24542734557562 39.21150487709069 L -31.22173980405393 38.784115138668696 L -32.19058340700797 38.34473482746923 L -33.15019557163549 37.89291416275995 L -34.09881722665307 37.428161604792365 L -35.034697087378404 36.94993857097908 L -35.95609591370431 36.45765327075625 L -36.86129074049237 35.950653473871455 L -37.74857906997543 35.428217979166966 L -38.61628301584574 34.889546488562736 L -39.46275338881939 34.33374750853911 L -40.28637371360735 33.75982379136858 L -41.08556416738864 33.166654679667886 L -41.85878543007081 32.55297451444849 L -42.604542436837555 31.917345984787925 L -43.32138802372127 31.258126900245824 L -44.0079264572004 30.573428299186865 L -44.66281683910512 29.86106097890374 L -45.28477637842127 29.11846630427961 L -45.872583521909 28.342625284573163 L -46.42508093580089 27.529937000336684 L -46.94117833121011 26.676052806108626 L -47.41985512626475 25.77564503582722 L -47.86016293838738 24.82207573369724 L -48.26122790055754 23.806907299809026 L -48.622252795829766 22.71915245941764 L -48.94251900482847 21.54407205161474 L -49.221388261403234 20.261137814271407 L -49.45830421210203 18.840325757678638 L -49.65279377560474 17.23470331648235 L -49.80446829875457 15.363496641172054 L -49.91302450632697 13.064646701723198 L -49.97824524218679 9.901753982305225 L -50 0.000021586107971405908 L -49.97824524218679 -9.90175398230517 L -49.91302450632697 -13.064646701723229 L -49.80446829875457 -15.363496641172025 L -49.652793775604756 -17.234703316482282 L -49.45830421210203 -18.840325757678578 L -49.221388261403256 -20.261137814271354 L -48.94251900482847 -21.544072051614755 L -48.622252795829766 -22.719152459417625 L -48.261227900557564 -23.806907299809012 L -47.86016293838738 -24.82207573369725 L -47.41985512626475 -25.775645035827203 L -46.94117833121011 -26.676052806108615 L -46.42508093580089 -27.529937000336695 L -45.872583521909 -28.342625284573153 L -45.2847763784213 -29.118466304279583 L -44.66281683910515 -29.86106097890371 L -44.007926457200405 -30.57342829918684 L -43.32138802372127 -31.25812690024583 L -42.604542436837555 -31.917345984787914 L -41.858785430070824 -32.552974514448486 L -41.08556416738864 -33.16665467966789 L -40.28637371360736 -33.759823791368575 L -39.462753388819415 -34.33374750853909 L -38.616283015845774 -34.889546488562715 L -37.748579069975435 -35.428217979166966 L -36.86129074049238 -35.950653473871455 L -35.95609591370435 -36.45765327075623 L -35.03469708737842 -36.94993857097908 L -34.098817226653075 -37.42816160479236 L -33.15019557163548 -37.89291416275996 L -32.190583407007985 -38.34473482746922 L -31.22173980405394 -38.78411513866869 L -30.24542734557561 -39.21150487709069 L -29.263407844211 -39.62731661544321 L -28.27743806466463 -40.03192965643934 L -27.28926546034899 -40.42569345528552 L -26.300623934887202 -40.808930606309055 L -25.313229638855283 -41.181939459283704 L -24.3287768120435 -41.54499641969567 L -23.34893368139035 -41.89835797806821 L -22.37533842459003 -42.24226250606078 L -21.409595209197324 -42.57693185102013 L -20.45327031684777 -42.902572755709514 L -19.50788836198258 -43.21937812585987 L -18.574928614211867 -43.527528164806206 L -17.655821433169656 -43.82719139165993 L -16.751944824410426 -44.11852555711694 L -15.864621124567293 -44.401678469028944 L -14.995113823640557 -44.67678873820383 L -14.144624531908983 -44.94398645349552 L -13.31429009855863 -45.203393794050825 L -12.50517988870212 -45.455125585565256 L -11.718293225018142 -45.699289806531404 L -10.954556999775807 -45.93598804971905 L -10.214823462520148 -46.16531594348661 L -9.499868188185378 -46.38736353697095 L -8.81038822986996 -46.6022156527255 L -8.147000459951718 -46.80995220996197 L -7.510240102640539 -47.01064852119137 L -6.900559460461345 -47.20437556474509 L -6.318326836525087 -47.39120023538288 L -5.763825653781857 -47.5711855749536 L -5.237253771749974 -47.744390984863415 L -4.738723000476784 -47.91087242191964 L -4.268258810699328 -48.07068257895472 L -3.825800238330843 -48.22387105148902 L -3.4111999804869586 -48.370484491562756 L -3.0242246792672507 -48.510566749752655 L -2.664555388402394 -48.644159006287246 L -2.3317882166313306 -48.77129989208377 L -2.025435140247912 -48.89202560044825 L -1.7449249755934415 -49.006369990107565 L -1.489604500290937 -49.114364680176806 L -1.258739709607371 -49.21603913760623 L -1.0515171913281798 -49.31142075759878 L -0.8670455986996681 -49.40053493744128 L -0.7043571959877657 -49.483405144148286 L -0.5624094444790796 -49.56005297627791 L -0.44008658747503543 -49.63049822024273 L -0.33620117964875534 -49.69475890140536 L -0.2494954867898727 -49.7528513302177 L -0.17864265252913997 -49.80479014363481 L -0.12224748195261534 -49.850588342007754 L -0.07884661424302207 -49.89025732163584 L -0.046907718891740835 -49.92380690313551 L -0.024827087303948493 -49.9512453557617 L -0.010924436469762534 -49.97257941779748 L -0.003432386513649398 -49.98781431310791 L -0.00047391394223518973 -49.99695376393593 L -5.486075112113711e-44 -50 L 0.0004739139422351612 -49.99695376393593 L 0.0034323865136492954 -49.98781431310791 L 0.010924436469762317 -49.97257941779748 L 0.024827087303948125 -49.9512453557617 L 0.04690771889174028 -49.92380690313551 L 0.07884661424302127 -49.89025732163584 L 0.12224748195261681 -49.850588342007754 L 0.1786426525291419 -49.80479014363481 L 0.24949548678987105 -49.7528513302177 L 0.3362011796487534 -49.69475890140536 L 0.4400865874750273 -49.63049822024273 L 0.5624094444790703 -49.560052976277916 L 0.7043571959877627 -49.483405144148286 L 0.8670455986996648 -49.400534937441286 L 1.0515171913281858 -49.311420757598775 L 1.2587397096073774 -49.216039137606224 L 1.4896045002909315 -49.11436468017681 L 1.744924975593436 -49.006369990107565 L 2.025435140247906 -48.89202560044825 L 2.3317882166313066 -48.771299892083775 L 2.6645553884023694 -48.64415900628726 L 3.0242246792672427 -48.510566749752655 L 3.41119998048695 -48.37048449156276 L 3.825800238330855 -48.22387105148902 L 4.268258810699319 -48.070682578954724 L 4.7387230004767735 -47.91087242191965 L 5.237253771749964 -47.744390984863415 L 5.763825653781845 -47.57118557495361 L 6.318326836525075 -47.39120023538288 L 6.900559460461331 -47.2043755647451 L 7.510240102640525 -47.01064852119138 L 8.147000459951702 -46.80995220996198 L 8.810388229869943 -46.6022156527255 L 9.499868188185328 -46.38736353697097 L 10.214823462520132 -46.16531594348662 L 10.95455699977579 -45.93598804971906 L 11.718293225018122 -45.699289806531404 L 12.505179888702148 -45.45512558556525 L 13.31429009855865 -45.20339379405082 L 14.144624531908967 -44.943986453495526 L 14.995113823640521 -44.67678873820385 L 15.864621124567249 -44.40167846902896 L 16.751944824410362 -44.11852555711696 L 17.65582143316958 -43.82719139165995 L 18.574928614211842 -43.52752816480621 L 19.507888361982566 -43.219378125859876 L 20.453270316847778 -42.902572755709514 L 21.409595209197324 -42.57693185102012 L 22.37533842459003 -42.24226250606078 L 23.34893368139033 -41.898357978068226 L 24.328776812043483 -41.54499641969568 L 25.313229638855223 -41.18193945928373 L 26.30062393488718 -40.80893060630906 L 27.289265460348965 -40.42569345528552 L 28.277438064664583 -40.03192965643936 L 29.263407844210953 -39.627316615443235 L 30.24542734557561 -39.21150487709069 L 31.221739804053872 -38.78411513866872 L 32.19058340700796 -38.34473482746923 L 33.15019557163546 -37.892914162759965 L 34.098817226653075 -37.42816160479236 L 35.03469708737842 -36.94993857097907 L 35.95609591370431 -36.45765327075625 L 36.86129074049238 -35.95065347387145 L 37.7485790699754 -35.42821797916699 L 38.61628301584577 -34.88954648856273 L 39.46275338881936 -34.33374750853913 L 40.28637371360735 -33.75982379136859 L 41.08556416738861 -33.16665467966791 L 41.858785430070824 -32.552974514448486 L 42.60454243683752 -31.91734598478795 L 43.32138802372127 -31.25812690024583 L 44.007926457200426 -30.573428299186833 L 44.66281683910512 -29.86106097890374 L 45.284776378421284 -29.1184663042796 L 45.872583521909 -28.34262528457317 L 46.42508093580088 -27.529937000336712 L 46.94117833121009 -26.67605280610865 L 47.41985512626475 -25.775645035827203 L 47.86016293838736 -24.822075733697297 L 48.26122790055754 -23.806907299809037 L 48.622252795829766 -22.71915245941765 L 48.94251900482847 -21.544072051614783 L 49.221388261403234 -20.261137814271382 L 49.45830421210203 -18.84032575767861 L 49.652793775604756 -17.234703316482275 L 49.80446829875457 -15.36349664117212 L 49.91302450632697 -13.064646701723218 L 49.97824524218679 -9.901753982305454 Z" stroke="#7e7f9a" fill="#d83f31"/></svg>
