<svg data-v-d1d3d0d7="" id="superellipse" viewBox="-60 -60 120 120" xmlns="http://www.w3.org/2000/svg" version="1.1" style="transform: rotate(0deg); stroke-width: 0.5px;"><path d="M 50 0 L 49.99847685876837 22.250566265047325 L 49.9939067852813 25.558410261324195 L 49.98628782866231 27.71596709585655 L 49.97561673244348 29.3553260214244 L 49.961888927028916 30.69228384926625 L 49.945098519091864 31.828554643803248 L 49.92523827785289 32.820780042234475 L 49.90229961817131 33.703970433331456 L 49.87627258036515 34.50138207362787 L 49.84714580665845 35.22930295485368 L 49.814906514136275 35.89961353261843 L 49.77954046406913 36.52126285200762 L 49.741031927448134 37.10117046693857 L 49.69936364655049 37.644803947273495 L 49.654516792331584 38.15656319971677 L 49.60647091741471 38.64004462918212 L 49.555203904421994 39.098227772615765 L 49.50069190935999 39.53361032099511 L 49.442909299740975 39.94830783949923 L 49.38182858708443 40.34412876395306 L 49.31742035340416 40.72263171730671 L 49.24965317124206 41.08516994693376 L 49.17849351676134 41.43292622331851 L 49.10390567535795 41.76694056820701 L 49.025851639188645 42.08813251925474 L 48.94429099594745 42.397319180504475 L 48.859180808146704 42.69522998577022 L 48.770475482075014 42.98251887161749 L 48.67812662550957 43.25977438960608 L 48.582082893153675 43.527528164806206 L 48.48228981864995 43.786262016452845 L 48.37868963188336 44.036413988123904 L 48.27122106013349 44.27838348285238 L 48.15981911146 44.512535658757535 L 48.0444148385047 44.73920520999415 L 47.92493508066498 44.958699633822555 L 47.8013021823315 45.171302065752464 L 47.673433684582264 45.37727374979887 L 47.54124198737914 45.576856199005036 L 47.404633978913665 45.77027309185964 L 47.26351062828694 45.95773194254737 L 47.117766537172024 46.13942557673433 L 46.967289445483736 46.315533439500356 L 46.811959685351745 46.486222757855835 L 46.65164957684037 46.65164957684037 L 46.486222757855835 46.811959685351745 L 46.315533439500356 46.96728944548373 L 46.13942557673433 47.117766537172024 L 45.957731942547376 47.26351062828694 L 45.77027309185964 47.404633978913665 L 45.576856199005036 47.54124198737914 L 45.377273749798874 47.673433684582264 L 45.17130206575247 47.8013021823315 L 44.958699633822555 47.92493508066498 L 44.73920520999415 48.0444148385047 L 44.512535658757535 48.15981911146 L 44.278383482852384 48.271221060133485 L 44.036413988123904 48.37868963188336 L 43.786262016452845 48.48228981864995 L 43.527528164806206 48.582082893153675 L 43.25977438960608 48.67812662550957 L 42.98251887161749 48.770475482075014 L 42.695229985770226 48.859180808146704 L 42.397319180504475 48.94429099594745 L 42.08813251925474 49.025851639188645 L 41.76694056820701 49.10390567535795 L 41.43292622331852 49.17849351676134 L 41.08516994693375 49.24965317124206 L 40.72263171730671 49.31742035340416 L 40.34412876395306 49.38182858708443 L 39.94830783949923 49.442909299740975 L 39.53361032099511 49.50069190935999 L 39.098227772615765 49.555203904421994 L 38.64004462918212 49.60647091741471 L 38.15656319971677 49.654516792331584 L 37.644803947273495 49.69936364655049 L 37.10117046693857 49.741031927448134 L 36.52126285200762 49.77954046406913 L 35.89961353261843 49.814906514136275 L 35.22930295485368 49.84714580665845 L 34.50138207362788 49.87627258036515 L 33.70397043333146 49.902299618171305 L 32.820780042234475 49.92523827785289 L 31.828554643803248 49.945098519091864 L 30.69228384926625 49.961888927028916 L 29.35532602142441 49.97561673244348 L 27.71596709585656 49.98628782866231 L 25.55841026132421 49.9939067852813 L 22.250566265047294 49.99847685876837 L 0.028600009378819305 50 L -22.25056626504732 49.99847685876837 L -25.55841026132416 49.9939067852813 L -27.715967095856524 49.98628782866231 L -29.3553260214244 49.97561673244348 L -30.692283849266254 49.961888927028916 L -31.82855464380324 49.945098519091864 L -32.82078004223447 49.9252382778529 L -33.703970433331456 49.90229961817131 L -34.50138207362789 49.87627258036515 L -35.22930295485368 49.84714580665845 L -35.89961353261843 49.814906514136275 L -36.52126285200761 49.77954046406913 L -37.10117046693856 49.741031927448134 L -37.644803947273495 49.69936364655049 L -38.15656319971678 49.654516792331584 L -38.640044629182114 49.60647091741471 L -39.098227772615765 49.555203904421994 L -39.5336103209951 49.50069190935999 L -39.94830783949922 49.442909299740975 L -40.34412876395306 49.38182858708443 L -40.72263171730671 49.31742035340416 L -41.08516994693376 49.24965317124206 L -41.43292622331851 49.17849351676134 L -41.766940568207005 49.10390567535796 L -42.08813251925474 49.025851639188645 L -42.397319180504475 48.94429099594745 L -42.69522998577022 48.859180808146704 L -42.982518871617486 48.77047548207502 L -43.25977438960608 48.67812662550958 L -43.5275281648062 48.582082893153675 L -43.786262016452845 48.48228981864995 L -44.036413988123904 48.37868963188336 L -44.27838348285238 48.271221060133485 L -44.51253565875753 48.15981911146 L -44.73920520999414 48.04441483850471 L -44.95869963382255 47.92493508066498 L -45.17130206575247 47.8013021823315 L -45.377273749798874 47.673433684582264 L -45.57685619900503 47.54124198737914 L -45.77027309185964 47.404633978913665 L -45.957731942547376 47.26351062828693 L -46.13942557673433 47.117766537172024 L -46.315533439500356 46.967289445483736 L -46.48622275785583 46.811959685351745 L -46.65164957684037 46.65164957684037 L -46.811959685351745 46.486222757855835 L -46.96728944548373 46.315533439500356 L -47.11776653717202 46.13942557673433 L -47.26351062828694 45.957731942547376 L -47.404633978913665 45.77027309185965 L -47.54124198737914 45.576856199005036 L -47.673433684582264 45.377273749798874 L -47.801302182331504 45.171302065752464 L -47.92493508066498 44.958699633822555 L -48.0444148385047 44.73920520999415 L -48.15981911146 44.512535658757535 L -48.27122106013349 44.27838348285238 L -48.37868963188336 44.036413988123904 L -48.48228981864995 43.786262016452845 L -48.582082893153675 43.527528164806206 L -48.67812662550957 43.259774389606086 L -48.770475482075014 42.98251887161749 L -48.859180808146704 42.695229985770226 L -48.94429099594745 42.397319180504475 L -49.025851639188645 42.08813251925474 L -49.10390567535795 41.76694056820702 L -49.17849351676134 41.432926223318525 L -49.24965317124205 41.08516994693376 L -49.31742035340416 40.722631717306705 L -49.38182858708443 40.344128763953066 L -49.442909299740975 39.94830783949924 L -49.50069190935999 39.53361032099511 L -49.555203904421994 39.09822777261577 L -49.60647091741471 38.640044629182135 L -49.65451679233158 38.15656319971678 L -49.69936364655049 37.644803947273495 L -49.741031927448134 37.10117046693856 L -49.77954046406913 36.52126285200762 L -49.814906514136275 35.89961353261843 L -49.84714580665845 35.22930295485367 L -49.87627258036515 34.50138207362789 L -49.902299618171305 33.70397043333147 L -49.92523827785289 32.820780042234475 L -49.945098519091864 31.828554643803265 L -49.961888927028916 30.692283849266282 L -49.97561673244348 29.355326021424418 L -49.98628782866231 27.71596709585654 L -49.9939067852813 25.558410261324155 L -49.99847685876837 22.250566265047304 L -50 0.03285278372634951 L -49.99847685876837 -22.250566265047244 L -49.9939067852813 -25.558410261324187 L -49.98628782866231 -27.71596709585652 L -49.975616732443484 -29.355326021424354 L -49.961888927028916 -30.692283849266232 L -49.945098519091864 -31.82855464380322 L -49.92523827785289 -32.82078004223449 L -49.902299618171305 -33.703970433331456 L -49.87627258036515 -34.50138207362787 L -49.84714580665845 -35.22930295485369 L -49.814906514136275 -35.89961353261843 L -49.77954046406913 -36.5212628520076 L -49.741031927448134 -37.10117046693857 L -49.69936364655049 -37.64480394727349 L -49.654516792331584 -38.15656319971676 L -49.60647091741471 -38.640044629182114 L -49.555203904421994 -39.09822777261576 L -49.50069190935999 -39.533610320995116 L -49.442909299740975 -39.94830783949923 L -49.38182858708443 -40.34412876395306 L -49.31742035340416 -40.72263171730671 L -49.24965317124206 -41.08516994693376 L -49.17849351676134 -41.43292622331851 L -49.10390567535796 -41.766940568207 L -49.025851639188645 -42.08813251925474 L -48.94429099594745 -42.397319180504475 L -48.859180808146704 -42.69522998577021 L -48.770475482075014 -42.98251887161749 L -48.67812662550958 -43.25977438960608 L -48.582082893153675 -43.527528164806206 L -48.48228981864995 -43.786262016452845 L -48.37868963188336 -44.036413988123904 L -48.27122106013349 -44.27838348285238 L -48.15981911146 -44.51253565875753 L -48.04441483850471 -44.73920520999414 L -47.92493508066498 -44.95869963382255 L -47.801302182331504 -45.171302065752464 L -47.673433684582264 -45.37727374979886 L -47.54124198737914 -45.576856199005036 L -47.404633978913665 -45.77027309185964 L -47.26351062828694 -45.957731942547376 L -47.117766537172024 -46.13942557673433 L -46.967289445483736 -46.315533439500356 L -46.811959685351745 -46.486222757855835 L -46.65164957684037 -46.65164957684037 L -46.486222757855835 -46.81195968535174 L -46.31553343950036 -46.96728944548373 L -46.13942557673433 -47.11776653717202 L -45.957731942547376 -47.26351062828693 L -45.77027309185965 -47.404633978913665 L -45.57685619900503 -47.54124198737914 L -45.37727374979887 -47.673433684582264 L -45.171302065752464 -47.8013021823315 L -44.958699633822555 -47.92493508066498 L -44.73920520999415 -48.0444148385047 L -44.51253565875754 -48.15981911146 L -44.27838348285238 -48.27122106013349 L -44.036413988123904 -48.37868963188336 L -43.786262016452845 -48.482289818649946 L -43.52752816480622 -48.582082893153675 L -43.25977438960608 -48.67812662550958 L -42.98251887161749 -48.770475482075014 L -42.695229985770226 -48.859180808146704 L -42.39731918050449 -48.94429099594744 L -42.08813251925475 -49.025851639188645 L -41.76694056820701 -49.10390567535796 L -41.43292622331851 -49.17849351676134 L -41.08516994693376 -49.24965317124205 L -40.72263171730672 -49.31742035340416 L -40.34412876395307 -49.38182858708443 L -39.94830783949923 -49.442909299740975 L -39.533610320995116 -49.50069190935999 L -39.09822777261578 -49.555203904421994 L -38.640044629182114 -49.60647091741471 L -38.156563199716764 -49.654516792331584 L -37.644803947273495 -49.69936364655049 L -37.101170466938584 -49.741031927448134 L -36.52126285200763 -49.77954046406913 L -35.89961353261846 -49.81490651413627 L -35.22930295485368 -49.84714580665845 L -34.50138207362789 -49.87627258036515 L -33.703970433331435 -49.90229961817131 L -32.82078004223446 -49.9252382778529 L -31.82855464380324 -49.945098519091864 L -30.692283849266254 -49.961888927028916 L -29.35532602142442 -49.97561673244348 L -27.7159670958566 -49.98628782866231 L -25.558410261324294 -49.9939067852813 L -22.250566265047322 -49.99847685876837 L -0.035627916556489184 -50 L 22.25056626504723 -49.99847685876837 L 25.558410261324244 -49.9939067852813 L 27.71596709585656 -49.98628782866231 L 29.35532602142439 -49.975616732443484 L 30.692283849266232 -49.961888927028916 L 31.82855464380322 -49.945098519091864 L 32.82078004223449 -49.92523827785289 L 33.703970433331456 -49.90229961817131 L 34.501382073627866 -49.87627258036515 L 35.229302954853665 -49.84714580665845 L 35.89961353261841 -49.814906514136275 L 36.52126285200759 -49.77954046406913 L 37.10117046693857 -49.741031927448134 L 37.64480394727349 -49.69936364655049 L 38.15656319971678 -49.65451679233158 L 38.64004462918212 -49.60647091741471 L 39.098227772615765 -49.555203904421994 L 39.5336103209951 -49.50069190935999 L 39.94830783949922 -49.442909299740975 L 40.344128763953044 -49.38182858708443 L 40.72263171730669 -49.31742035340416 L 41.08516994693375 -49.24965317124206 L 41.4329262233185 -49.17849351676135 L 41.76694056820702 -49.10390567535795 L 42.08813251925474 -49.025851639188645 L 42.397319180504475 -48.94429099594745 L 42.69522998577022 -48.859180808146704 L 42.98251887161748 -48.77047548207502 L 43.25977438960607 -48.67812662550958 L 43.527528164806206 -48.582082893153675 L 43.786262016452845 -48.48228981864995 L 44.036413988123904 -48.37868963188336 L 44.27838348285238 -48.27122106013349 L 44.51253565875752 -48.15981911146 L 44.73920520999415 -48.0444148385047 L 44.95869963382255 -47.92493508066498 L 45.171302065752464 -47.801302182331504 L 45.377273749798874 -47.673433684582264 L 45.576856199005036 -47.54124198737914 L 45.77027309185964 -47.404633978913665 L 45.95773194254737 -47.26351062828694 L 46.139425576734325 -47.11776653717203 L 46.31553343950035 -46.96728944548374 L 46.48622275785582 -46.81195968535175 L 46.65164957684037 -46.65164957684037 L 46.81195968535174 -46.486222757855835 L 46.967289445483736 -46.315533439500356 L 47.117766537172024 -46.13942557673433 L 47.26351062828694 -45.957731942547376 L 47.404633978913665 -45.77027309185965 L 47.54124198737914 -45.576856199005036 L 47.67343368458226 -45.37727374979888 L 47.8013021823315 -45.171302065752464 L 47.92493508066498 -44.958699633822555 L 48.0444148385047 -44.739205209994154 L 48.15981911146 -44.51253565875754 L 48.27122106013349 -44.27838348285238 L 48.378689631883354 -44.03641398812392 L 48.482289818649946 -43.786262016452845 L 48.582082893153675 -43.52752816480622 L 48.67812662550958 -43.25977438960608 L 48.770475482075014 -42.98251887161749 L 48.859180808146704 -42.695229985770226 L 48.94429099594745 -42.397319180504475 L 49.025851639188645 -42.08813251925475 L 49.10390567535796 -41.76694056820701 L 49.17849351676134 -41.43292622331853 L 49.24965317124205 -41.08516994693376 L 49.31742035340415 -40.722631717306726 L 49.38182858708443 -40.34412876395306 L 49.442909299740975 -39.94830783949925 L 49.50069190935999 -39.533610320995116 L 49.555203904421994 -39.09822777261575 L 49.60647091741471 -38.640044629182135 L 49.654516792331584 -38.156563199716764 L 49.69936364655049 -37.644803947273495 L 49.741031927448134 -37.101170466938584 L 49.77954046406913 -36.52126285200763 L 49.814906514136275 -35.899613532618424 L 49.84714580665845 -35.229302954853715 L 49.87627258036515 -34.50138207362789 L 49.902299618171305 -33.70397043333148 L 49.92523827785289 -32.82078004223451 L 49.945098519091864 -31.82855464380324 L 49.961888927028916 -30.69228384926626 L 49.975616732443484 -29.355326021424354 L 49.98628782866231 -27.715967095856602 L 49.9939067852813 -25.558410261324177 L 49.99847685876837 -22.250566265047564 Z" stroke="#96c291" fill="#96c292"/></svg>
