<svg data-v-d1d3d0d7="" id="superellipse" viewBox="-60 -60 120 120" xmlns="http://www.w3.org/2000/svg" version="1.1" style="transform: rotate(45deg); stroke-width: 0px;"><path d="M 50 0 L 49.98896379473946 0.1415579399759094 L 49.95586307171042 0.3864681605982853 L 49.90072150504708 0.6952782556635666 L 49.82357853790017 1.0544003426114161 L 49.724489361846786 1.4560192535025052 L 49.60352488810274 1.8948324956073033 L 49.46077171057633 2.366897129846835 L 49.296332060813256 2.869100804424427 L 49.11032375489411 3.3988802317563636 L 48.90288013235748 3.9540558694641845 L 48.674149987233 4.53272774958708 L 48.424297491281045 5.133206256021082 L 48.15350210954793 5.753964176162143 L 47.86195850835784 6.393602365154479 L 47.5498764558758 7.050824480462409 L 47.21748071538936 7.724417966686119 L 46.865010931470216 8.413239471162111 L 46.492721509191846 9.116203477617491 L 46.10088148659336 9.832273326632684 L 45.68977440059634 10.560454039143089 L 45.25969814659713 11.29978652418093 L 44.81096483197466 12.04934286469212 L 44.34390062377188 12.808222453811242 L 43.85884559082866 13.57554880980226 L 43.3561535406641 14.350466938227283 L 42.83619185142856 15.132141139528944 L 42.29934129926916 15.91975318226326 L 41.745995881477974 16.712500778844213 L 41.176562635819415 17.509596313341643 L 40.59146145646327 18.310265780650266 L 39.99112490698173 19.11374790395921 L 39.375998030904604 19.91929340343283 L 38.74653816036495 20.726164393753677 L 38.103214723410225 21.53363389196453 L 37.44650905060065 22.340985420093535 L 36.776914181568216 23.147512689515104 L 36.094934672267534 23.952519356012854 L 35.401086403713386 24.755318836163216 L 34.695896393071585 25.55523417702184 L 33.979902608049954 26.351597972226614 L 33.253653785626206 27.143752318575004 L 32.517709256251436 27.931048807924636 L 31.77263877478319 28.71284854993225 L 31.019022359532272 29.488522221710095 L 30.257450140957243 30.257450140957236 L 29.4885222217101 31.019022359532265 L 28.71284854993225 31.772638774783186 L 27.931048807924636 32.517709256251436 L 27.14375231857501 33.2536537856262 L 26.35159797222662 33.979902608049954 L 25.555234177021845 34.69589639307158 L 24.75531883616322 35.401086403713386 L 23.95251935601286 36.094934672267534 L 23.147512689515104 36.776914181568216 L 22.34098542009354 37.44650905060065 L 21.533633891964527 38.103214723410225 L 20.72616439375368 38.74653816036494 L 19.91929340343283 39.375998030904604 L 19.113747903959222 39.99112490698173 L 18.310265780650276 40.59146145646327 L 17.509596313341646 41.176562635819415 L 16.712500778844216 41.74599588147797 L 15.919753182263264 42.29934129926916 L 15.132141139528946 42.83619185142856 L 14.350466938227283 43.3561535406641 L 13.575548809802262 43.85884559082866 L 12.808222453811249 44.34390062377187 L 12.049342864692118 44.81096483197466 L 11.299786524180936 45.25969814659713 L 10.560454039143092 45.68977440059633 L 9.83227332663269 46.10088148659335 L 9.116203477617493 46.492721509191846 L 8.413239471162111 46.865010931470216 L 7.724417966686119 47.21748071538936 L 7.050824480462409 47.5498764558758 L 6.393602365154484 47.86195850835784 L 5.753964176162141 48.15350210954793 L 5.1332062560210865 48.42429749128104 L 4.5327277495870835 48.674149987233 L 3.9540558694641876 48.90288013235748 L 3.3988802317563653 49.11032375489411 L 2.869100804424434 49.296332060813256 L 2.3668971298468353 49.46077171057633 L 1.8948324956073033 49.60352488810274 L 1.4560192535025045 49.724489361846786 L 1.0544003426114195 49.82357853790017 L 0.6952782556635693 49.90072150504708 L 0.3864681605982871 49.95586307171042 L 0.1415579399759078 49.98896379473946 L 1.5916252130406276e-22 50 L -0.141557939975909 49.98896379473946 L -0.38646816059828154 49.95586307171042 L -0.6952782556635626 49.90072150504708 L -1.0544003426114168 49.82357853790017 L -1.456019253502507 49.724489361846786 L -1.8948324956073002 49.60352488810275 L -2.3668971298468318 49.460771710576346 L -2.8691008044244244 49.296332060813256 L -3.398880231756369 49.11032375489411 L -3.954055869464184 48.90288013235748 L -4.53272774958708 48.674149987233 L -5.133206256021075 48.424297491281045 L -5.753964176162136 48.15350210954793 L -6.3936023651544795 47.86195850835784 L -7.0508244804624125 47.5498764558758 L -7.724417966686115 47.21748071538936 L -8.413239471162106 46.86501093147022 L -9.116203477617487 46.49272150919185 L -9.832273326632675 46.10088148659336 L -10.560454039143089 45.68977440059634 L -11.29978652418093 45.25969814659713 L -12.049342864692122 44.81096483197466 L -12.808222453811236 44.34390062377188 L -13.575548809802255 43.858845590828665 L -14.350466938227276 43.35615354066411 L -15.13214113952895 42.83619185142856 L -15.919753182263257 42.29934129926916 L -16.7125007788442 41.74599588147798 L -17.509596313341643 41.17656263581942 L -18.31026578065026 40.59146145646327 L -19.113747903959215 39.99112490698173 L -19.919293403432825 39.375998030904604 L -20.726164393753677 38.74653816036494 L -21.533633891964516 38.103214723410225 L -22.34098542009352 37.44650905060066 L -23.1475126895151 36.776914181568216 L -23.95251935601286 36.09493467226752 L -24.75531883616322 35.401086403713386 L -25.555234177021834 34.69589639307159 L -26.35159797222662 33.979902608049954 L -27.14375231857502 33.25365378562618 L -27.931048807924636 32.517709256251436 L -28.712848549932247 31.77263877478319 L -29.488522221710078 31.01902235953229 L -30.257450140957236 30.257450140957243 L -31.019022359532272 29.488522221710088 L -31.772638774783186 28.712848549932264 L -32.51770925625143 27.93104880792464 L -33.2536537856262 27.14375231857501 L -33.97990260804995 26.351597972226624 L -34.69589639307157 25.555234177021863 L -35.40108640371338 24.75531883616323 L -36.094934672267534 23.95251935601285 L -36.77691418156821 23.14751268951511 L -37.44650905060063 22.340985420093553 L -38.103214723410225 21.53363389196453 L -38.746538160364956 20.72616439375367 L -39.375998030904604 19.91929340343283 L -39.99112490698173 19.113747903959222 L -40.59146145646327 18.310265780650266 L -41.176562635819415 17.50959631334165 L -41.74599588147796 16.712500778844227 L -42.29934129926916 15.919753182263266 L -42.83619185142856 15.132141139528937 L -43.3561535406641 14.350466938227285 L -43.85884559082866 13.575548809802275 L -44.34390062377187 12.808222453811261 L -44.81096483197465 12.04934286469213 L -45.25969814659713 11.299786524180929 L -45.68977440059633 10.560454039143096 L -46.10088148659335 9.832273326632702 L -46.492721509191846 9.116203477617496 L -46.865010931470216 8.413239471162122 L -47.217480715389335 7.72441796668614 L -47.5498764558758 7.050824480462419 L -47.86195850835784 6.393602365154479 L -48.15350210954793 5.753964176162135 L -48.424297491281045 5.133206256021082 L -48.674149987233 4.532727749587086 L -48.90288013235748 3.954055869464183 L -49.11032375489411 3.3988802317563667 L -49.296332060813256 2.869100804424436 L -49.46077171057633 2.3668971298468366 L -49.60352488810274 1.8948324956073106 L -49.724489361846786 1.4560192535025167 L -49.82357853790017 1.054400342611421 L -49.90072150504708 0.6952782556635662 L -49.95586307171042 0.38646816059828093 L -49.98896379473946 0.14155793997590854 L -50 4.346264636755324e-22 L -49.98896379473946 -0.14155793997590563 L -49.95586307171042 -0.3864681605982842 L -49.90072150504708 -0.6952782556635615 L -49.82357853790018 -1.054400342611406 L -49.724489361846786 -1.4560192535024998 L -49.60352488810275 -1.8948324956072928 L -49.46077171057633 -2.366897129846842 L -49.296332060813256 -2.8691008044244293 L -49.11032375489411 -3.398880231756359 L -48.90288013235748 -3.9540558694641894 L -48.674149987233 -4.532727749587077 L -48.424297491281045 -5.133206256021073 L -48.15350210954793 -5.7539641761621425 L -47.86195850835784 -6.39360236515447 L -47.54987645587581 -7.050824480462392 L -47.21748071538936 -7.7244179666861115 L -46.86501093147022 -8.413239471162095 L -46.492721509191846 -9.116203477617505 L -46.10088148659335 -9.83227332663269 L -45.68977440059634 -10.560454039143085 L -45.25969814659713 -11.299786524180938 L -44.81096483197466 -12.04934286469212 L -44.34390062377188 -12.808222453811233 L -43.85884559082868 -13.575548809802243 L -43.35615354066411 -14.350466938227274 L -42.83619185142857 -15.132141139528926 L -42.29934129926918 -15.919753182263236 L -41.74599588147797 -16.712500778844216 L -41.17656263581942 -17.50959631334164 L -40.59146145646327 -18.310265780650276 L -39.99112490698173 -19.11374790395921 L -39.375998030904604 -19.919293403432825 L -38.74653816036495 -20.726164393753677 L -38.10321472341024 -21.533633891964516 L -37.44650905060066 -22.34098542009352 L -36.77691418156822 -23.1475126895151 L -36.09493467226754 -23.952519356012843 L -35.4010864037134 -24.755318836163195 L -34.69589639307158 -25.55523417702186 L -33.979902608049954 -26.351597972226614 L -33.25365378562619 -27.143752318575014 L -32.517709256251436 -27.931048807924636 L -31.77263877478319 -28.712848549932247 L -31.019022359532265 -29.4885222217101 L -30.257450140957253 -30.257450140957236 L -29.488522221710117 -31.019022359532254 L -28.71284854993228 -31.772638774783168 L -27.931048807924654 -32.51770925625143 L -27.143752318575032 -33.25365378562618 L -26.351597972226624 -33.97990260804995 L -25.55523417702183 -34.6958963930716 L -24.75531883616321 -35.401086403713386 L -23.952519356012854 -36.094934672267534 L -23.14751268951511 -36.77691418156821 L -22.340985420093553 -37.44650905060063 L -21.53363389196455 -38.10321472341021 L -20.72616439375367 -38.74653816036495 L -19.919293403432835 -39.375998030904604 L -19.113747903959226 -39.991124906981725 L -18.31026578065029 -40.59146145646325 L -17.509596313341632 -41.17656263581943 L -16.712500778844213 -41.745995881477974 L -15.91975318226327 -42.29934129926916 L -15.13214113952896 -42.83619185142855 L -14.350466938227308 -43.35615354066409 L -13.575548809802257 -43.858845590828665 L -12.808222453811243 -44.34390062377187 L -12.049342864692134 -44.81096483197465 L -11.29978652418095 -45.259698146597124 L -10.560454039143117 -45.68977440059632 L -9.832273326632684 -46.10088148659336 L -9.116203477617498 -46.492721509191846 L -8.413239471162125 -46.86501093147021 L -7.724417966686108 -47.21748071538936 L -7.050824480462403 -47.5498764558758 L -6.3936023651544795 -47.86195850835784 L -5.753964176162153 -48.153502109547915 L -5.133206256021099 -48.42429749128104 L -4.532727749587103 -48.67414998723299 L -3.9540558694641845 -48.90288013235748 L -3.398880231756369 -49.11032375489411 L -2.869100804424412 -49.296332060813256 L -2.366897129846826 -49.460771710576346 L -1.8948324956073008 -49.60352488810275 L -1.4560192535025072 -49.724489361846786 L -1.0544003426114223 -49.82357853790017 L -0.6952782556635758 -49.90072150504708 L -0.3864681605982962 -49.95586307171041 L -0.14155793997590924 -49.98896379473946 L -7.822055435778577e-22 -50 L 0.1415579399759049 -49.98896379473946 L 0.3864681605982903 -49.95586307171042 L 0.6952782556635688 -49.90072150504708 L 1.0544003426114144 -49.82357853790018 L 1.4560192535024985 -49.724489361846786 L 1.894832495607291 -49.60352488810275 L 2.3668971298468406 -49.46077171057633 L 2.8691008044244275 -49.296332060813256 L 3.398880231756358 -49.11032375489411 L 3.954055869464173 -48.90288013235749 L 4.53272774958706 -48.67414998723301 L 5.133206256021055 -48.42429749128105 L 5.753964176162141 -48.15350210954793 L 6.393602365154467 -47.861958508357844 L 7.050824480462424 -47.5498764558758 L 7.7244179666861275 -47.21748071538934 L 8.413239471162107 -46.865010931470216 L 9.116203477617484 -46.49272150919185 L 9.83227332663267 -46.10088148659337 L 10.560454039143064 -45.68977440059634 L 11.299786524180897 -45.25969814659716 L 12.049342864692118 -44.81096483197466 L 12.80822245381123 -44.343900623771894 L 13.57554880980228 -43.85884559082866 L 14.35046693822729 -43.3561535406641 L 15.132141139528944 -42.83619185142856 L 15.919753182263255 -42.29934129926916 L 16.712500778844195 -41.74599588147798 L 17.509596313341614 -41.17656263581944 L 18.310265780650276 -40.59146145646327 L 19.11374790395921 -39.99112490698173 L 19.91929340343282 -39.37599803090461 L 20.726164393753653 -38.74653816036496 L 21.53363389196449 -38.103214723410254 L 22.340985420093535 -37.44650905060065 L 23.147512689515093 -36.77691418156822 L 23.952519356012836 -36.09493467226754 L 24.755318836163234 -35.401086403713364 L 25.555234177021845 -34.69589639307158 L 26.351597972226614 -33.97990260804996 L 27.143752318574997 -33.25365378562621 L 27.931048807924608 -32.51770925625146 L 28.712848549932225 -31.772638774783225 L 29.488522221710056 -31.019022359532304 L 30.257450140957232 -30.257450140957253 L 31.019022359532254 -29.488522221710117 L 31.772638774783204 -28.71284854993224 L 32.517709256251436 -27.93104880792463 L 33.25365378562619 -27.143752318575014 L 33.97990260804994 -26.35159797222663 L 34.69589639307157 -25.55523417702187 L 35.40108640371336 -24.755318836163255 L 36.094934672267534 -23.952519356012854 L 36.77691418156821 -23.147512689515118 L 37.44650905060063 -22.34098542009356 L 38.10321472341021 -21.533633891964556 L 38.74653816036495 -20.72616439375367 L 39.37599803090456 -19.91929340343288 L 39.991124906981725 -19.113747903959226 L 40.59146145646325 -18.31026578065029 L 41.17656263581942 -17.509596313341635 L 41.74599588147797 -16.712500778844213 L 42.29934129926916 -15.919753182263271 L 42.83619185142857 -15.132141139528924 L 43.35615354066409 -14.35046693822731 L 43.858845590828665 -13.57554880980226 L 44.34390062377185 -12.808222453811288 L 44.81096483197465 -12.049342864692136 L 45.259698146597124 -11.299786524180954 L 45.68977440059634 -10.560454039143083 L 46.10088148659334 -9.832273326632723 L 46.492721509191846 -9.116203477617503 L 46.86501093147023 -8.41323947116209 L 47.217480715389335 -7.7244179666861434 L 47.5498764558758 -7.050824480462406 L 47.86195850835784 -6.393602365154484 L 48.153502109547915 -5.753964176162156 L 48.42429749128104 -5.133206256021102 L 48.674149987233 -4.5327277495870755 L 48.902880132357474 -3.954055869464216 L 49.11032375489411 -3.3988802317563716 L 49.296332060813256 -2.86910080442444 L 49.46077171057633 -2.3668971298468526 L 49.60352488810274 -1.8948324956073022 L 49.724489361846786 -1.456019253502509 L 49.82357853790018 -1.0544003426114044 L 49.90072150504708 -0.695278255663577 L 49.95586307171042 -0.386468160598283 L 49.98896379473946 -0.14155793997592042 Z" stroke="#7e7f9a" fill="#e9b824"/></svg>
