<svg data-v-d1d3d0d7="" id="superellipse" viewBox="-60 -60 120 120" xmlns="http://www.w3.org/2000/svg" version="1.1" style="transform: rotate(0deg); stroke-width: 4px;"><path d="M 50 0 L 49.992384757819565 0.8726203218641756 L 49.969541350954785 1.7449748351250485 L 49.931476737728694 2.6167978121471913 L 49.87820251299121 3.487823687206265 L 49.80973490458728 4.357787137382909 L 49.72609476841367 5.226423163382673 L 49.6273075820661 6.093467170257374 L 49.513403437078516 6.958655048003272 L 49.38441702975689 7.821723252011544 L 49.2403876506104 8.682408883346517 L 49.0813591723832 9.54044976882724 L 48.907380036690284 10.395584540887965 L 48.718503239261764 11.24755271719325 L 48.514786313799824 12.096094779983387 L 48.29629131445341 12.940952255126037 L 48.063084796915945 13.781867790849958 L 47.81523779815177 14.618585236136838 L 47.552825814757675 15.450849718747369 L 47.275928779965845 16.278407722857832 L 46.98463103929542 17.101007166283434 L 46.67902132486009 17.918397477265014 L 46.35919272833937 18.7303296707956 L 46.02524267262202 19.536556424463686 L 45.67727288213004 20.336832153790006 L 45.31538935183249 21.130913087034973 L 44.93970231495835 21.91855733945387 L 44.550326209418394 22.699524986977337 L 44.14737964294635 23.473578139294542 L 43.73098535696979 24.240481012316852 L 43.30127018922194 24.999999999999996 L 42.858365035105614 25.75190374550271 L 42.4024048078213 26.495963211660246 L 41.9335283972712 27.231951750751353 L 41.45187862775208 27.959645173537346 L 40.95760221444959 28.678821817552304 L 40.45084971874737 29.389262614623657 L 39.931775502364644 30.090751157602412 L 39.4005376803361 30.78307376628291 L 38.85729807284854 31.46601955249187 L 38.302222155948904 32.13938048432696 L 37.73547901113861 32.80295144952536 L 37.157241273869715 33.456530317942914 L 36.567685080958526 34.09991800312493 L 35.96699001693256 34.73291852294986 L 35.35533905932738 35.35533905932737 L 34.732918522949866 35.966990016932556 L 34.09991800312493 36.567685080958526 L 33.456530317942914 37.157241273869715 L 32.80295144952537 37.7354790111386 L 32.13938048432697 38.302222155948904 L 31.466019552491876 38.857298072848536 L 30.783073766282914 39.4005376803361 L 30.09075115760242 39.931775502364644 L 29.389262614623657 40.45084971874737 L 28.678821817552308 40.95760221444959 L 27.95964517353734 41.45187862775209 L 27.23195175075136 41.933528397271196 L 26.495963211660246 42.4024048078213 L 25.75190374550272 42.858365035105614 L 25.000000000000007 43.30127018922193 L 24.240481012316856 43.73098535696979 L 23.473578139294542 44.14737964294634 L 22.69952498697734 44.55032620941839 L 21.918557339453873 44.93970231495835 L 21.130913087034973 45.31538935183249 L 20.33683215379001 45.67727288213004 L 19.536556424463697 46.025242672622014 L 18.730329670795598 46.35919272833937 L 17.918397477265017 46.67902132486009 L 17.10100716628344 46.984631039295415 L 16.27840772285784 47.27592877996584 L 15.450849718747373 47.552825814757675 L 14.618585236136838 47.81523779815177 L 13.781867790849958 48.063084796915945 L 12.940952255126037 48.29629131445341 L 12.096094779983394 48.514786313799824 L 11.247552717193246 48.718503239261764 L 10.395584540887972 48.90738003669028 L 9.540449768827246 49.0813591723832 L 8.68240888334652 49.2403876506104 L 7.821723252011546 49.38441702975689 L 6.958655048003284 49.513403437078516 L 6.093467170257375 49.6273075820661 L 5.226423163382673 49.72609476841367 L 4.357787137382907 49.80973490458728 L 3.487823687206273 49.87820251299121 L 2.6167978121471984 49.931476737728694 L 1.744974835125054 49.969541350954785 L 0.8726203218641688 49.992384757819565 L 3.061616997868383e-15 50 L -0.8726203218641738 49.992384757819565 L -1.7449748351250367 49.969541350954785 L -2.616797812147181 49.931476737728694 L -3.4878236872062667 49.87820251299121 L -4.357787137382911 49.80973490458728 L -5.226423163382667 49.72609476841367 L -6.093467170257369 49.6273075820661 L -6.958655048003267 49.513403437078516 L -7.821723252011552 49.38441702975688 L -8.682408883346515 49.2403876506104 L -9.54044976882724 49.0813591723832 L -10.395584540887956 48.907380036690284 L -11.24755271719324 48.718503239261764 L -12.096094779983389 48.514786313799824 L -12.940952255126042 48.29629131445341 L -13.781867790849953 48.063084796915945 L -14.618585236136832 47.81523779815178 L -15.450849718747367 47.55282581475768 L -16.27840772285782 47.275928779965845 L -17.101007166283434 46.98463103929542 L -17.918397477265014 46.67902132486009 L -18.730329670795605 46.35919272833937 L -19.53655642446368 46.02524267262202 L -20.336832153790002 45.67727288213005 L -21.130913087034966 45.3153893518325 L -21.918557339453876 44.939702314958346 L -22.699524986977334 44.550326209418394 L -23.473578139294528 44.147379642946355 L -24.24048101231685 43.73098535696979 L -24.99999999999999 43.30127018922194 L -25.751903745502712 42.858365035105614 L -26.49596321166024 42.402404807821306 L -27.231951750751353 41.933528397271196 L -27.959645173537336 41.45187862775209 L -28.67882181755229 40.9576022144496 L -29.38926261462365 40.45084971874737 L -30.09075115760242 39.93177550236464 L -30.783073766282914 39.4005376803361 L -31.466019552491865 38.85729807284855 L -32.13938048432697 38.302222155948904 L -32.802951449525374 37.73547901113859 L -33.456530317942914 37.157241273869715 L -34.09991800312492 36.567685080958526 L -34.73291852294985 35.96699001693257 L -35.35533905932737 35.35533905932738 L -35.96699001693256 34.73291852294986 L -36.567685080958526 34.09991800312493 L -37.1572412738697 33.45653031794292 L -37.7354790111386 32.80295144952537 L -38.3022221559489 32.13938048432697 L -38.857298072848536 31.466019552491886 L -39.40053768033609 30.78307376628292 L -39.931775502364644 30.09075115760241 L -40.450849718747364 29.38926261462366 L -40.95760221444958 28.67882181755232 L -41.45187862775208 27.959645173537346 L -41.93352839727121 27.23195175075135 L -42.4024048078213 26.495963211660246 L -42.858365035105614 25.75190374550272 L -43.30127018922194 24.999999999999996 L -43.73098535696979 24.24048101231686 L -44.14737964294634 23.473578139294553 L -44.55032620941839 22.699524986977345 L -44.93970231495835 21.918557339453866 L -45.31538935183249 21.130913087034976 L -45.67727288213004 20.33683215379002 L -46.02524267262201 19.536556424463708 L -46.359192728339366 18.730329670795612 L -46.67902132486009 17.91839747726501 L -46.984631039295415 17.101007166283445 L -47.27592877996584 16.278407722857853 L -47.552825814757675 15.450849718747376 L -47.81523779815177 14.618585236136852 L -48.06308479691593 13.781867790849983 L -48.29629131445341 12.940952255126051 L -48.514786313799824 12.096094779983387 L -48.718503239261764 11.247552717193239 L -48.907380036690284 10.395584540887965 L -49.0813591723832 9.540449768827248 L -49.2403876506104 8.682408883346513 L -49.38441702975688 7.821723252011549 L -49.513403437078516 6.958655048003287 L -49.6273075820661 6.0934671702573775 L -49.72609476841367 5.2264231633826865 L -49.80973490458728 4.357787137382932 L -49.87820251299121 3.4878236872062764 L -49.931476737728694 2.6167978121471904 L -49.969541350954785 1.744974835125035 L -49.992384757819565 0.8726203218641719 L -50 6.123233995736766e-15 L -49.992384757819565 -0.8726203218641596 L -49.969541350954785 -1.744974835125045 L -49.931476737728694 -2.616797812147178 L -49.878202512991216 -3.4878236872062414 L -49.80973490458728 -4.357787137382897 L -49.72609476841367 -5.226423163382653 L -49.6273075820661 -6.093467170257387 L -49.513403437078516 -6.958655048003276 L -49.38441702975689 -7.8217232520115365 L -49.2403876506104 -8.682408883346524 L -49.0813591723832 -9.540449768827235 L -48.907380036690284 -10.395584540887953 L -48.718503239261764 -11.24755271719325 L -48.514786313799824 -12.096094779983375 L -48.29629131445342 -12.940952255126017 L -48.063084796915945 -13.78186779084995 L -47.81523779815178 -14.61858523613682 L -47.552825814757675 -15.450849718747387 L -47.27592877996584 -16.27840772285784 L -46.98463103929542 -17.101007166283434 L -46.67902132486009 -17.91839747726502 L -46.35919272833937 -18.7303296707956 L -46.02524267262202 -19.536556424463676 L -45.677272882130055 -20.33683215378999 L -45.3153893518325 -21.130913087034962 L -44.93970231495836 -21.918557339453855 L -44.55032620941841 -22.699524986977313 L -44.14737964294634 -23.473578139294542 L -43.73098535696979 -24.24048101231685 L -43.30127018922193 -25.000000000000007 L -42.858365035105614 -25.75190374550271 L -42.402404807821306 -26.49596321166024 L -41.9335283972712 -27.231951750751353 L -41.451878627752095 -27.959645173537336 L -40.9576022144496 -28.67882181755229 L -40.45084971874738 -29.38926261462365 L -39.93177550236465 -30.0907511576024 L -39.400537680336114 -30.783073766282893 L -38.857298072848536 -31.46601955249188 L -38.302222155948904 -32.13938048432696 L -37.735479011138594 -32.80295144952537 L -37.157241273869715 -33.456530317942914 L -36.567685080958526 -34.09991800312492 L -35.966990016932556 -34.732918522949866 L -35.355339059327385 -35.35533905932737 L -34.73291852294988 -35.96699001693254 L -34.09991800312495 -36.567685080958505 L -33.45653031794292 -37.1572412738697 L -32.80295144952538 -37.73547901113859 L -32.13938048432697 -38.3022221559489 L -31.466019552491858 -38.85729807284856 L -30.783073766282904 -39.40053768033611 L -30.090751157602412 -39.931775502364644 L -29.38926261462366 -40.450849718747364 L -28.67882181755232 -40.95760221444958 L -27.95964517353736 -41.45187862775207 L -27.23195175075135 -41.9335283972712 L -26.49596321166025 -42.4024048078213 L -25.751903745502723 -42.85836503510561 L -25.00000000000002 -43.30127018922192 L -24.24048101231684 -43.730985356969796 L -23.47357813929454 -44.14737964294635 L -22.699524986977345 -44.55032620941839 L -21.918557339453887 -44.93970231495834 L -21.130913087034997 -45.315389351832486 L -20.336832153790006 -45.67727288213005 L -19.53655642446369 -46.025242672622014 L -18.730329670795616 -46.359192728339366 L -17.918397477265035 -46.67902132486008 L -17.10100716628347 -46.98463103929541 L -16.278407722857832 -47.275928779965845 L -15.450849718747378 -47.552825814757675 L -14.618585236136855 -47.81523779815176 L -13.781867790849944 -48.06308479691595 L -12.940952255126032 -48.29629131445341 L -12.096094779983389 -48.514786313799824 L -11.247552717193262 -48.71850323926176 L -10.39558454088799 -48.90738003669028 L -9.540449768827273 -49.081359172383195 L -8.682408883346517 -49.2403876506104 L -7.821723252011552 -49.38441702975688 L -6.958655048003247 -49.513403437078516 L -6.093467170257359 -49.6273075820661 L -5.226423163382668 -49.72609476841367 L -4.357787137382912 -49.80973490458728 L -3.487823687206279 -49.87820251299121 L -2.6167978121472153 -49.931476737728694 L -1.7449748351250824 -49.969541350954785 L -0.8726203218641749 -49.992384757819565 L -9.184850993605149e-15 -50 L 0.8726203218641565 -49.992384757819565 L 1.744974835125064 -49.969541350954785 L 2.616797812147197 -49.931476737728694 L 3.487823687206261 -49.878202512991216 L 4.3577871373828945 -49.80973490458728 L 5.226423163382649 -49.72609476841367 L 6.093467170257385 -49.6273075820661 L 6.958655048003274 -49.513403437078516 L 7.821723252011534 -49.38441702975689 L 8.682408883346499 -49.24038765061041 L 9.540449768827212 -49.0813591723832 L 10.395584540887928 -48.90738003669029 L 11.247552717193246 -48.718503239261764 L 12.096094779983373 -48.51478631379983 L 12.940952255126057 -48.29629131445341 L 13.781867790849969 -48.06308479691594 L 14.618585236136836 -47.81523779815177 L 15.450849718747362 -47.55282581475768 L 16.278407722857814 -47.275928779965845 L 17.10100716628341 -46.98463103929543 L 17.91839747726498 -46.6790213248601 L 18.730329670795598 -46.35919272833937 L 19.536556424463676 -46.02524267262203 L 20.336832153790027 -45.67727288213004 L 21.13091308703498 -45.31538935183249 L 21.91855733945387 -44.93970231495835 L 22.69952498697733 -44.550326209418394 L 23.47357813929452 -44.147379642946355 L 24.240481012316824 -43.7309853569698 L 25.000000000000007 -43.30127018922193 L 25.75190374550271 -42.858365035105614 L 26.495963211660232 -42.402404807821306 L 27.231951750751332 -41.93352839727121 L 27.95964517353731 -41.4518786277521 L 28.678821817552304 -40.95760221444959 L 29.389262614623647 -40.45084971874738 L 30.090751157602398 -39.93177550236465 L 30.783073766282925 -39.400537680336086 L 31.466019552491876 -38.857298072848536 L 32.13938048432696 -38.302222155948904 L 32.80295144952535 -37.735479011138615 L 33.45653031794289 -37.15724127386973 L 34.0999180031249 -36.56768508095855 L 34.73291852294983 -35.966990016932584 L 35.35533905932737 -35.355339059327385 L 35.96699001693254 -34.73291852294988 L 36.56768508095853 -34.09991800312491 L 37.157241273869715 -33.45653031794291 L 37.735479011138594 -32.80295144952537 L 38.30222215594889 -32.13938048432698 L 38.85729807284853 -31.466019552491893 L 39.40053768033608 -30.783073766282943 L 39.931775502364644 -30.090751157602412 L 40.450849718747364 -29.389262614623668 L 40.95760221444958 -28.678821817552326 L 41.45187862775207 -27.959645173537368 L 41.9335283972712 -27.23195175075135 L 42.40240480782127 -26.49596321166029 L 42.85836503510561 -25.751903745502723 L 43.30127018922192 -25.00000000000002 L 43.73098535696979 -24.240481012316845 L 44.14737964294634 -23.473578139294542 L 44.55032620941839 -22.699524986977348 L 44.93970231495836 -21.91855733945385 L 45.315389351832486 -21.130913087035 L 45.67727288213005 -20.336832153790006 L 46.025242672622 -19.536556424463736 L 46.359192728339366 -18.730329670795616 L 46.679021324860074 -17.91839747726504 L 46.98463103929542 -17.10100716628343 L 47.275928779965824 -16.278407722857878 L 47.552825814757675 -15.450849718747383 L 47.815237798151784 -14.618585236136813 L 48.06308479691593 -13.781867790849988 L 48.29629131445341 -12.940952255126033 L 48.514786313799824 -12.096094779983394 L 48.71850323926176 -11.247552717193267 L 48.90738003669028 -10.395584540887993 L 49.0813591723832 -9.540449768827234 L 49.240387650610394 -8.682408883346564 L 49.38441702975688 -7.821723252011556 L 49.513403437078516 -6.958655048003294 L 49.6273075820661 -6.093467170257406 L 49.72609476841367 -5.2264231633826705 L 49.80973490458728 -4.357787137382916 L 49.878202512991216 -3.4878236872062383 L 49.931476737728694 -2.6167978121472184 L 49.969541350954785 -1.7449748351250411 L 49.992384757819565 -0.8726203218642224 Z" stroke="#ffffff" fill="#94a684"/></svg>
