<svg data-v-d1d3d0d7="" id="superellipse" viewBox="-60 -60 120 120" xmlns="http://www.w3.org/2000/svg" version="1.1" style="transform: rotate(0deg); stroke-width: 4px;"><path d="M 50 0 L 49.99782409815873 15.726893740174223 L 49.99129563485978 19.17046391023388 L 49.9804123350286 21.523500673821125 L 49.96517040103542 23.364989007861052 L 49.94556450390756 24.89989038792169 L 49.92158777096768 26.227162603505526 L 49.893231769838266 27.402929672957356 L 49.860486488734814 28.462400130544353 L 49.82334031295183 29.429255352215833 L 49.78177999742587 30.320260425264213 L 49.7357906352402 31.147759818671577 L 49.68535562191331 31.921130554859378 L 49.63045661529139 32.64767808246231 L 49.5710734908396 33.33321455262766 L 49.50718429210107 33.982446484214016 L 49.43876517606387 34.599243023063295 L 49.36579035314509 35.186826653273094 L 49.288232021467735 35.74791196873773 L 49.206060295069065 36.28480871723102 L 49.11924312563853 36.799499690005014 L 49.02774621733924 37.293700533789945 L 48.931532934217294 37.76890633210189 L 48.8305641996495 38.22642834406576 L 48.724798387219224 38.66742331308085 L 48.61419120234331 39.09291709147067 L 48.498695553898166 39.50382386411635 L 48.37826141500949 39.900961926718495 L 48.25283567207638 40.285066739433454 L 48.12236196099587 40.656801805729735 L 47.986780489435134 41.0167678003819 L 47.84602784386575 41.365510276633934 L 47.70003677992346 41.70352621180614 L 47.54873599448631 42.03126959675102 L 47.39204987767011 42.349156233167754 L 47.22989824272004 42.6575678706944 L 47.06219603152531 42.95685579061508 L 46.888852993196615 43.24734392326566 L 46.70977333281628 43.52933157055085 L 46.52485532709264 43.803095792469364 L 46.33399090321336 44.06889350648411 L 46.13706517668895 44.326963340438546 L 45.93395594339306 44.5775272731041 L 45.72453312032832 44.82079209103292 L 45.508658128854925 45.05695068594374 L 45.286183213195336 45.28618321319533 L 45.05695068594374 45.508658128854925 L 44.82079209103292 45.72453312032832 L 44.5775272731041 45.93395594339306 L 44.32696334043855 46.13706517668894 L 44.06889350648411 46.33399090321336 L 43.80309579246937 46.52485532709264 L 43.52933157055085 46.70977333281628 L 43.24734392326566 46.888852993196615 L 42.95685579061508 47.06219603152531 L 42.65756787069441 47.22989824272004 L 42.34915623316775 47.39204987767011 L 42.03126959675102 47.54873599448631 L 41.70352621180614 47.70003677992346 L 41.365510276633934 47.84602784386574 L 41.0167678003819 47.986780489435134 L 40.656801805729735 48.12236196099587 L 40.285066739433454 48.25283567207638 L 39.900961926718495 48.37826141500949 L 39.50382386411635 48.498695553898166 L 39.09291709147067 48.61419120234331 L 38.66742331308085 48.724798387219224 L 38.226428344065766 48.8305641996495 L 37.76890633210189 48.931532934217294 L 37.293700533789945 49.02774621733924 L 36.79949969000502 49.11924312563853 L 36.28480871723103 49.206060295069065 L 35.74791196873773 49.288232021467735 L 35.186826653273094 49.36579035314509 L 34.599243023063295 49.43876517606387 L 33.982446484214016 49.50718429210107 L 33.333214552627666 49.5710734908396 L 32.647678082462306 49.63045661529139 L 31.921130554859378 49.68535562191331 L 31.147759818671584 49.7357906352402 L 30.320260425264216 49.78177999742587 L 29.42925535221584 49.82334031295183 L 28.462400130544363 49.860486488734814 L 27.402929672957356 49.893231769838266 L 26.227162603505526 49.92158777096768 L 24.899890387921687 49.94556450390756 L 23.364989007861066 49.96517040103542 L 21.523500673821143 49.9804123350286 L 19.1704639102339 49.99129563485978 L 15.726893740174186 49.99782409815873 L 0.0011659470296293524 50 L -15.726893740174214 49.99782409815873 L -19.170463910233845 49.99129563485978 L -21.5235006738211 49.9804123350286 L -23.364989007861052 49.96517040103542 L -24.899890387921694 49.94556450390756 L -26.227162603505523 49.92158777096769 L -27.40292967295734 49.893231769838266 L -28.462400130544346 49.860486488734814 L -29.429255352215844 49.82334031295183 L -30.320260425264213 49.78177999742587 L -31.147759818671577 49.7357906352402 L -31.921130554859367 49.68535562191331 L -32.647678082462306 49.63045661529139 L -33.33321455262766 49.5710734908396 L -33.982446484214016 49.50718429210107 L -34.599243023063295 49.43876517606387 L -35.186826653273094 49.365790353145094 L -35.74791196873773 49.28823202146774 L -36.28480871723102 49.206060295069065 L -36.799499690005014 49.11924312563853 L -37.293700533789945 49.02774621733924 L -37.7689063321019 48.931532934217294 L -38.22642834406575 48.8305641996495 L -38.66742331308085 48.724798387219224 L -39.09291709147067 48.61419120234331 L -39.50382386411635 48.498695553898166 L -39.900961926718495 48.37826141500949 L -40.28506673943345 48.25283567207639 L -40.656801805729735 48.122361960995875 L -41.01676780038189 47.986780489435134 L -41.365510276633934 47.84602784386575 L -41.703526211806135 47.700036779923465 L -42.03126959675102 47.54873599448631 L -42.34915623316775 47.39204987767011 L -42.65756787069439 47.22989824272004 L -42.95685579061507 47.06219603152531 L -43.24734392326566 46.888852993196615 L -43.52933157055085 46.70977333281628 L -43.803095792469364 46.524855327092645 L -44.06889350648411 46.33399090321336 L -44.32696334043855 46.13706517668894 L -44.5775272731041 45.93395594339306 L -44.82079209103292 45.72453312032832 L -45.05695068594373 45.508658128854925 L -45.28618321319533 45.286183213195336 L -45.508658128854925 45.05695068594374 L -45.72453312032832 44.82079209103292 L -45.93395594339305 44.5775272731041 L -46.13706517668894 44.32696334043855 L -46.33399090321336 44.06889350648411 L -46.52485532709264 43.80309579246937 L -46.70977333281628 43.52933157055085 L -46.888852993196615 43.24734392326566 L -47.06219603152531 42.95685579061508 L -47.22989824272004 42.657567870694415 L -47.39204987767011 42.349156233167754 L -47.548735994486314 42.03126959675102 L -47.70003677992346 41.70352621180614 L -47.84602784386574 41.365510276633934 L -47.986780489435134 41.0167678003819 L -48.12236196099587 40.656801805729735 L -48.25283567207638 40.285066739433454 L -48.37826141500949 39.900961926718495 L -48.498695553898166 39.50382386411635 L -48.61419120234331 39.092917091470675 L -48.724798387219224 38.66742331308086 L -48.8305641996495 38.22642834406577 L -48.931532934217294 37.768906332101906 L -49.02774621733924 37.29370053378994 L -49.11924312563853 36.79949969000502 L -49.206060295069065 36.28480871723104 L -49.288232021467735 35.74791196873773 L -49.36579035314509 35.18682665327311 L -49.43876517606387 34.59924302306331 L -49.50718429210107 33.98244648421402 L -49.5710734908396 33.33321455262766 L -49.63045661529139 32.6476780824623 L -49.68535562191331 31.921130554859378 L -49.7357906352402 31.147759818671588 L -49.78177999742587 30.320260425264213 L -49.82334031295183 29.429255352215844 L -49.860486488734814 28.462400130544367 L -49.893231769838266 27.402929672957356 L -49.92158777096768 26.227162603505548 L -49.94556450390756 24.899890387921726 L -49.96517040103542 23.364989007861073 L -49.9804123350286 21.523500673821122 L -49.99129563485978 19.17046391023384 L -49.99782409815873 15.726893740174203 L -50 0.0014213053491973307 L -49.99782409815873 -15.72689374017414 L -49.99129563485978 -19.170463910233874 L -49.9804123350286 -21.523500673821093 L -49.96517040103542 -23.364989007861006 L -49.94556450390756 -24.89989038792167 L -49.92158777096769 -26.227162603505498 L -49.893231769838266 -27.40292967295737 L -49.860486488734814 -28.462400130544353 L -49.82334031295183 -29.429255352215826 L -49.78177999742587 -30.320260425264216 L -49.7357906352402 -31.147759818671577 L -49.68535562191331 -31.92113055485936 L -49.63045661529139 -32.64767808246231 L -49.5710734908396 -33.33321455262765 L -49.50718429210107 -33.982446484213995 L -49.43876517606387 -34.59924302306329 L -49.365790353145094 -35.18682665327309 L -49.288232021467735 -35.747911968737746 L -49.206060295069065 -36.28480871723103 L -49.11924312563853 -36.799499690005014 L -49.02774621733924 -37.293700533789945 L -48.931532934217294 -37.76890633210189 L -48.8305641996495 -38.22642834406575 L -48.724798387219224 -38.667423313080846 L -48.61419120234331 -39.09291709147067 L -48.498695553898166 -39.50382386411634 L -48.37826141500949 -39.90096192671848 L -48.25283567207638 -40.285066739433454 L -48.122361960995875 -40.65680180572973 L -47.986780489435134 -41.0167678003819 L -47.84602784386575 -41.365510276633934 L -47.700036779923465 -41.703526211806135 L -47.54873599448631 -42.03126959675102 L -47.39204987767011 -42.34915623316775 L -47.22989824272004 -42.65756787069439 L -47.06219603152532 -42.95685579061507 L -46.888852993196615 -43.24734392326566 L -46.70977333281629 -43.529331570550845 L -46.52485532709264 -43.80309579246937 L -46.33399090321336 -44.06889350648411 L -46.13706517668894 -44.32696334043855 L -45.93395594339306 -44.5775272731041 L -45.72453312032832 -44.82079209103292 L -45.508658128854925 -45.05695068594374 L -45.286183213195336 -45.28618321319533 L -45.05695068594374 -45.50865812885492 L -44.82079209103293 -45.72453312032831 L -44.5775272731041 -45.93395594339305 L -44.32696334043855 -46.137065176688935 L -44.06889350648411 -46.33399090321336 L -43.80309579246936 -46.524855327092645 L -43.52933157055085 -46.70977333281628 L -43.24734392326566 -46.888852993196615 L -42.95685579061508 -47.06219603152531 L -42.657567870694415 -47.22989824272004 L -42.34915623316776 -47.392049877670104 L -42.03126959675102 -47.54873599448631 L -41.70352621180614 -47.70003677992346 L -41.36551027663394 -47.84602784386574 L -41.016767800381906 -47.98678048943513 L -40.65680180572973 -48.122361960995875 L -40.285066739433454 -48.25283567207638 L -39.9009619267185 -48.37826141500949 L -39.50382386411636 -48.498695553898166 L -39.09291709147069 -48.6141912023433 L -38.66742331308085 -48.724798387219224 L -38.22642834406576 -48.8305641996495 L -37.768906332101906 -48.931532934217294 L -37.29370053378995 -49.02774621733924 L -36.799499690005035 -49.119243125638526 L -36.28480871723102 -49.206060295069065 L -35.74791196873774 -49.288232021467735 L -35.18682665327311 -49.36579035314509 L -34.59924302306329 -49.438765176063875 L -33.98244648421401 -49.50718429210107 L -33.33321455262766 -49.5710734908396 L -32.64767808246232 -49.63045661529139 L -31.921130554859396 -49.68535562191331 L -31.14775981867161 -49.7357906352402 L -30.320260425264213 -49.78177999742587 L -29.429255352215844 -49.82334031295183 L -28.462400130544317 -49.860486488734814 L -27.40292967295733 -49.893231769838266 L -26.227162603505523 -49.92158777096769 L -24.899890387921694 -49.94556450390756 L -23.364989007861077 -49.96517040103542 L -21.52350067382118 -49.9804123350286 L -19.17046391023399 -49.99129563485978 L -15.72689374017422 -49.99782409815873 L -0.0015958761297799786 -50 L 15.726893740174122 -49.99782409815873 L 19.17046391023393 -49.99129563485978 L 21.52350067382114 -49.9804123350286 L 23.36498900786104 -49.96517040103542 L 24.899890387921666 -49.94556450390756 L 26.227162603505494 -49.92158777096769 L 27.402929672957367 -49.893231769838266 L 28.462400130544353 -49.860486488734814 L 29.429255352215826 -49.82334031295183 L 30.320260425264195 -49.78177999742587 L 31.147759818671556 -49.7357906352402 L 31.921130554859346 -49.68535562191332 L 32.647678082462306 -49.63045661529139 L 33.33321455262765 -49.5710734908396 L 33.98244648421402 -49.50718429210107 L 34.5992430230633 -49.43876517606387 L 35.186826653273094 -49.36579035314509 L 35.747911968737725 -49.28823202146774 L 36.284808717231016 -49.206060295069065 L 36.799499690005 -49.11924312563853 L 37.29370053378992 -49.02774621733925 L 37.76890633210189 -48.931532934217294 L 38.22642834406575 -48.83056419964951 L 38.66742331308086 -48.724798387219224 L 39.092917091470675 -48.61419120234331 L 39.50382386411635 -48.498695553898166 L 39.900961926718495 -48.37826141500949 L 40.28506673943344 -48.25283567207639 L 40.65680180572973 -48.122361960995875 L 41.0167678003819 -47.986780489435134 L 41.365510276633934 -47.84602784386575 L 41.703526211806135 -47.700036779923465 L 42.03126959675101 -47.548735994486314 L 42.34915623316774 -47.39204987767012 L 42.6575678706944 -47.22989824272004 L 42.956855790615066 -47.06219603152532 L 43.24734392326566 -46.888852993196615 L 43.52933157055085 -46.709773332816276 L 43.80309579246937 -46.52485532709264 L 44.06889350648411 -46.33399090321337 L 44.326963340438546 -46.13706517668895 L 44.57752727310409 -45.93395594339306 L 44.820792091032914 -45.724533120328324 L 45.056950685943725 -45.50865812885493 L 45.28618321319533 -45.286183213195336 L 45.50865812885492 -45.05695068594374 L 45.72453312032832 -44.82079209103292 L 45.93395594339306 -44.5775272731041 L 46.13706517668894 -44.32696334043855 L 46.33399090321336 -44.068893506484116 L 46.52485532709264 -43.80309579246938 L 46.709773332816276 -43.529331570550866 L 46.888852993196615 -43.24734392326566 L 47.06219603152531 -42.95685579061508 L 47.22989824272004 -42.657567870694415 L 47.392049877670104 -42.34915623316777 L 47.54873599448631 -42.03126959675102 L 47.70003677992346 -41.70352621180616 L 47.84602784386574 -41.36551027663394 L 47.98678048943513 -41.016767800381906 L 48.122361960995875 -40.65680180572973 L 48.25283567207638 -40.285066739433454 L 48.37826141500949 -39.9009619267185 L 48.498695553898166 -39.50382386411634 L 48.6141912023433 -39.09291709147069 L 48.724798387219224 -38.66742331308085 L 48.830564199649494 -38.22642834406579 L 48.931532934217294 -37.768906332101906 L 49.027746217339235 -37.29370053378995 L 49.11924312563853 -36.799499690005014 L 49.20606029506906 -36.28480871723105 L 49.288232021467735 -35.747911968737746 L 49.365790353145094 -35.18682665327308 L 49.43876517606387 -34.59924302306332 L 49.50718429210107 -33.98244648421401 L 49.5710734908396 -33.333214552627666 L 49.63045661529139 -32.64767808246233 L 49.68535562191331 -31.9211305548594 L 49.7357906352402 -31.147759818671574 L 49.78177999742587 -30.320260425264255 L 49.82334031295183 -29.42925535221585 L 49.860486488734814 -28.462400130544374 L 49.893231769838266 -27.402929672957395 L 49.92158777096768 -26.227162603505526 L 49.94556450390756 -24.8998903879217 L 49.96517040103542 -23.364989007861 L 49.9804123350286 -21.52350067382119 L 49.99129563485978 -19.17046391023386 L 49.99782409815873 -15.726893740174464 Z" stroke="#f3f3f8" fill="#ffb7b8"/></svg>
