<svg data-v-d1d3d0d7="" id="superellipse" viewBox="-60 -60 120 120" xmlns="http://www.w3.org/2000/svg" version="1.1" style="transform: rotate(0deg); stroke-width: 0px;"><path d="M 50 0 L 49.99695376393593 0.00006894261185626968 L 49.98781431310791 0.0006945452582195891 L 49.97257941779748 0.0026810436406096284 L 49.9512453557617 0.0069863724185889615 L 49.92380690313551 0.014676529283331676 L 49.89025732163584 0.026899975829728646 L 49.850588342007754 0.044869535672611274 L 49.80479014363481 0.06984806043856956 L 49.7528513302177 0.10313628300312214 L 49.69475890140536 0.1460620654639696 L 49.63049822024273 0.1999706020666615 L 49.56005297627791 0.2662153164574959 L 49.483405144148286 0.34614929211731255 L 49.40053493744128 0.4411171338549704 L 49.31142075759878 0.5524471950950457 L 49.21603913760623 0.6814441296429941 L 49.11436468017681 0.8293817426640083 L 49.006369990107565 0.997496126629669 L 48.89202560044825 1.1869790756767247 L 48.771299892083775 1.3989717772434975 L 48.644159006287246 1.6345587836797268 L 48.510566749752655 1.8947622692120314 L 48.37048449156276 2.180536579492108 L 48.22387105148902 2.4927630821674596 L 48.070682578954724 2.832245327642911 L 47.91087242191965 3.199704529552111 L 47.744390984863415 3.5957753745102115 L 47.5711855749536 4.021002170530568 L 47.39120023538288 4.47583534310471 L 47.2043755647451 4.960628287400621 L 47.01064852119138 5.47563458435718 L 46.80995220996197 6.021005587664732 L 46.6022156527255 6.596788387741453 L 46.38736353697096 7.202924157857582 L 46.16531594348662 7.839246886537953 L 45.93598804971906 8.505482499298864 L 45.699289806531404 9.2012483716577 L 45.455125585565256 9.926053234202865 L 45.20339379405082 10.679297469334081 L 44.943986453495526 11.460273798087863 L 44.67678873820384 12.268168354256028 L 44.40167846902895 13.102062141793095 L 44.11852555711695 13.960932870297588 L 43.827191391659944 14.84365716214847 L 43.527528164806206 15.74901312368591 L 43.21937812585987 16.67568327165199 L 42.902572755709514 17.622257804955062 L 42.57693185102013 18.587238210697482 L 42.24226250606078 19.569041192314096 L 41.89835797806822 20.56600290661271 L 41.544996419695664 21.576383495491925 L 41.18193945928372 22.598371897140318 L 40.80893060630907 23.63009092059709 L 40.42569345528552 24.669602566682595 L 40.03192965643935 25.714913577488886 L 39.62731661544322 26.763981195861668 L 39.2115048770907 27.814719115604923 L 38.784115138668696 28.865003602504224 L 38.34473482746923 29.912679765693394 L 37.89291416275996 30.95556795838712 L 37.428161604792365 31.99147028656758 L 36.94993857097908 33.01817720385147 L 36.45765327075625 34.03347417047312 L 35.95065347387146 35.035148354102986 L 35.428217979166966 36.02099535007836 L 34.88954648856273 36.98882589855584 L 34.333747508539105 37.936472576102275 L 33.759823791368575 38.861796439324515 L 33.16665467966789 39.762693598295535 L 32.55297451444849 40.6371016977677 L 31.917345984787914 41.483006284469326 L 31.25812690024582 42.29844703916058 L 30.573428299186855 43.08152385257492 L 29.86106097890372 43.83040272489338 L 29.1184663042796 44.54332146898778 L 28.34262528457317 45.21859519832497 L 27.52993700033669 45.854621581143626 L 26.67605280610863 46.44988584329697 L 25.775645035827218 47.00296550299583 L 24.82207573369725 47.512534821583166 L 23.806907299809023 47.9773689554228 L 22.719152459417636 48.39634779498483 L 21.544072051614737 48.76845947825929 L 20.261137814271386 49.0928035667192 L 18.840325757678595 49.36859387318641 L 17.234703316482342 49.59516093211893 L 15.36349664117207 49.771954104037846 L 13.064646701723257 49.89854330703778 L 9.90175398230521 49.97462036957539 L 0.000016359210729371046 50 L -9.901753982305234 49.97462036957539 L -13.064646701723204 49.89854330703778 L -15.36349664117203 49.771954104037846 L -17.23470331648233 49.59516093211893 L -18.840325757678606 49.36859387318641 L -20.261137814271375 49.09280356671921 L -21.544072051614727 48.7684594782593 L -22.719152459417614 48.39634779498485 L -23.80690729980903 47.97736895542278 L -24.82207573369724 47.512534821583166 L -25.77564503582721 47.00296550299583 L -26.676052806108615 46.44988584329698 L -27.529937000336684 45.854621581143626 L -28.342625284573163 45.21859519832497 L -29.118466304279604 44.54332146898778 L -29.861060978903716 43.83040272489338 L -30.57342829918685 43.08152385257493 L -31.25812690024582 42.2984470391606 L -31.917345984787904 41.48300628446934 L -32.55297451444849 40.63710169776771 L -33.166654679667886 39.762693598295535 L -33.75982379136858 38.861796439324515 L -34.33374750853909 37.93647257610229 L -34.88954648856273 36.98882589855585 L -35.428217979166966 36.02099535007837 L -35.95065347387146 35.03514835410297 L -36.457653270756246 34.03347417047314 L -36.94993857097907 33.01817720385151 L -37.428161604792365 31.99147028656759 L -37.89291416275994 30.95556795838713 L -38.344734827469225 29.912679765693404 L -38.78411513866869 28.865003602504242 L -39.21150487709069 27.814719115604923 L -39.62731661544321 26.763981195861668 L -40.03192965643934 25.714913577488907 L -40.42569345528552 24.669602566682595 L -40.80893060630907 23.63009092059708 L -41.18193945928372 22.598371897140318 L -41.544996419695664 21.576383495491942 L -41.89835797806822 20.56600290661271 L -42.24226250606079 19.569041192314078 L -42.57693185102013 18.587238210697482 L -42.902572755709514 17.622257804955073 L -43.21937812585986 16.67568327165202 L -43.527528164806206 15.749013123685918 L -43.827191391659944 14.84365716214846 L -44.11852555711695 13.960932870297595 L -44.401678469028944 13.102062141793102 L -44.67678873820384 12.268168354256034 L -44.94398645349552 11.460273798087876 L -45.20339379405081 10.6792974693341 L -45.455125585565256 9.926053234202875 L -45.699289806531404 9.201248371657694 L -45.93598804971905 8.50548249929887 L -46.16531594348661 7.839246886537969 L -46.38736353697096 7.202924157857582 L -46.6022156527255 6.59678838774145 L -46.80995220996197 6.021005587664732 L -47.01064852119137 5.475634584357188 L -47.2043755647451 4.960628287400621 L -47.39120023538288 4.4758353431047135 L -47.5711855749536 4.0210021705305765 L -47.744390984863415 3.595775374510214 L -47.91087242191965 3.199704529552108 L -48.070682578954724 2.832245327642912 L -48.22387105148902 2.4927630821674653 L -48.370484491562756 2.1805365794921165 L -48.510566749752655 1.8947622692120352 L -48.644159006287246 1.6345587836797257 L -48.771299892083775 1.3989717772434997 L -48.89202560044825 1.1869790756767296 L -49.006369990107565 0.9974961266296705 L -49.11436468017681 0.8293817426640109 L -49.216039137606224 0.6814441296429982 L -49.311420757598775 0.5524471950950478 L -49.40053493744128 0.4411171338549704 L -49.483405144148286 0.34614929211731144 L -49.56005297627791 0.2662153164574959 L -49.63049822024273 0.19997060206666212 L -49.69475890140536 0.1460620654639694 L -49.7528513302177 0.1031362830031224 L -49.80479014363481 0.06984806043857007 L -49.850588342007754 0.04486953567261136 L -49.89025732163584 0.026899975829728886 L -49.92380690313551 0.01467652928333194 L -49.9512453557617 0.006986372418589036 L -49.97257941779748 0.0026810436406096245 L -49.98781431310791 0.0006945452582195711 L -49.99695376393593 0.00006894261185626871 L -50 4.560434019697707e-52 L -49.99695376393593 -0.00006894261185626546 L -49.98781431310791 -0.0006945452582195845 L -49.97257941779748 -0.0026810436406095833 L -49.9512453557617 -0.0069863724185888045 L -49.92380690313551 -0.014676529283331552 L -49.89025732163584 -0.0268999758297283 L -49.850588342007754 -0.0448695356726116 L -49.80479014363481 -0.0698480604385697 L -49.7528513302177 -0.10313628300312183 L -49.69475890140536 -0.14606206546397 L -49.63049822024273 -0.19997060206666126 L -49.56005297627791 -0.26621531645749485 L -49.483405144148286 -0.3461492921173124 L -49.40053493744128 -0.44111713385496903 L -49.31142075759878 -0.5524471950950429 L -49.21603913760623 -0.6814441296429927 L -49.11436468017681 -0.8293817426640047 L -49.006369990107565 -0.9974961266296727 L -48.89202560044825 -1.1869790756767262 L -48.771299892083775 -1.3989717772434966 L -48.644159006287246 -1.6345587836797293 L -48.510566749752655 -1.8947622692120314 L -48.37048449156276 -2.180536579492105 L -48.22387105148903 -2.492763082167453 L -48.070682578954724 -2.832245327642907 L -47.91087242191965 -3.199704529552103 L -47.74439098486342 -3.595775374510198 L -47.5711855749536 -4.02100217053057 L -47.39120023538288 -4.475835343104707 L -47.2043755647451 -4.960628287400627 L -47.01064852119138 -5.47563458435718 L -46.80995220996197 -6.021005587664727 L -46.6022156527255 -6.596788387741453 L -46.387363536970966 -7.202924157857573 L -46.165315943486625 -7.8392468865379445 L -45.93598804971906 -8.505482499298859 L -45.699289806531404 -9.20124837165769 L -45.455125585565256 -9.926053234202845 L -45.20339379405082 -10.679297469334093 L -44.943986453495526 -11.460273798087863 L -44.67678873820384 -12.26816835425604 L -44.40167846902895 -13.102062141793095 L -44.11852555711695 -13.960932870297583 L -43.82719139165994 -14.843657162148476 L -43.52752816480621 -15.74901312368591 L -43.219378125859876 -16.675683271651977 L -42.90257275570952 -17.622257804955037 L -42.57693185102013 -18.587238210697464 L -42.24226250606079 -19.569041192314067 L -41.898357978068226 -20.566002906612702 L -41.544996419695664 -21.576383495491953 L -41.18193945928371 -22.59837189714033 L -40.80893060630906 -23.63009092059709 L -40.42569345528552 -24.669602566682585 L -40.03192965643936 -25.71491357748886 L -39.627316615443235 -26.763981195861636 L -39.21150487709069 -27.814719115604937 L -38.784115138668696 -28.865003602504224 L -38.34473482746923 -29.912679765693383 L -37.892914162759965 -30.955567958387093 L -37.42816160479236 -31.99147028656761 L -36.94993857097907 -33.01817720385149 L -36.45765327075625 -34.03347417047312 L -35.950653473871476 -35.03514835410296 L -35.42821797916699 -36.02099535007833 L -34.88954648856273 -36.98882589855585 L -34.333747508539105 -37.936472576102275 L -33.75982379136859 -38.8617964393245 L -33.1666546796679 -39.76269359829552 L -32.55297451444852 -40.63710169776768 L -31.917345984787914 -41.48300628446934 L -31.258126900245824 -42.29844703916058 L -30.573428299186872 -43.0815238525749 L -29.86106097890371 -43.830402724893396 L -29.118466304279593 -44.54332146898778 L -28.342625284573163 -45.21859519832497 L -27.52993700033671 -45.854621581143604 L -26.676052806108647 -46.44988584329697 L -25.775645035827242 -47.00296550299581 L -24.822075733697243 -47.512534821583166 L -23.80690729980903 -47.97736895542278 L -22.71915245941759 -48.39634779498485 L -21.544072051614712 -48.7684594782593 L -20.26113781427138 -49.09280356671921 L -18.840325757678606 -49.36859387318641 L -17.234703316482356 -49.59516093211893 L -15.36349664117211 -49.771954104037846 L -13.06464670172334 -49.89854330703776 L -9.90175398230524 -49.97462036957539 L -0.00002538696876312312 -50 L 9.901753982305156 -49.97462036957539 L 13.064646701723287 -49.89854330703778 L 15.36349664117207 -49.771954104037846 L 17.23470331648232 -49.59516093211895 L 18.840325757678574 -49.36859387318641 L 20.26113781427135 -49.09280356671921 L 21.544072051614748 -48.76845947825929 L 22.71915245941762 -48.39634779498485 L 23.80690729980901 -47.9773689554228 L 24.822075733697226 -47.51253482158319 L 25.77564503582718 -47.00296550299585 L 26.676052806108586 -46.449885843297004 L 27.52993700033669 -45.854621581143626 L 28.34262528457315 -45.21859519832499 L 29.118466304279618 -44.54332146898776 L 29.861060978903726 -43.83040272489336 L 30.573428299186855 -43.08152385257492 L 31.258126900245813 -42.2984470391606 L 31.917345984787897 -41.48300628446936 L 32.552974514448465 -40.63710169776773 L 33.166654679667865 -39.762693598295584 L 33.759823791368575 -38.861796439324515 L 34.33374750853909 -37.936472576102304 L 34.889546488562736 -36.988825898555824 L 35.42821797916697 -36.02099535007836 L 35.950653473871455 -35.035148354102986 L 36.45765327075624 -34.03347417047314 L 36.949938570979064 -33.01817720385151 L 37.42816160479235 -31.99147028656762 L 37.89291416275996 -30.95556795838712 L 38.34473482746922 -29.912679765693404 L 38.78411513866868 -28.865003602504252 L 39.21150487709068 -27.814719115604962 L 39.627316615443206 -26.763981195861707 L 40.031929656439345 -25.714913577488886 L 40.42569345528551 -24.669602566682606 L 40.808930606309055 -23.630090920597112 L 41.181939459283726 -22.598371897140296 L 41.544996419695664 -21.576383495491925 L 41.89835797806821 -20.566002906612717 L 42.24226250606078 -19.569041192314117 L 42.57693185102012 -18.58723821069751 L 42.9025727557095 -17.62225780495511 L 43.219378125859855 -16.675683271652044 L 43.5275281648062 -15.749013123685925 L 43.82719139165993 -14.843657162148494 L 44.11852555711695 -13.960932870297574 L 44.40167846902895 -13.10206214179309 L 44.67678873820384 -12.26816835425604 L 44.94398645349552 -11.460273798087883 L 45.20339379405081 -10.679297469334106 L 45.45512558556525 -9.9260532342029 L 45.699289806531404 -9.2012483716577 L 45.93598804971905 -8.505482499298875 L 46.16531594348661 -7.839246886537975 L 46.38736353697095 -7.202924157857601 L 46.6022156527255 -6.59678838774145 L 46.809952209961956 -6.0210055876647655 L 47.01064852119137 -5.475634584357191 L 47.20437556474509 -4.960628287400637 L 47.39120023538288 -4.4758353431047055 L 47.5711855749536 -4.021002170530568 L 47.744390984863415 -3.595775374510217 L 47.91087242191965 -3.199704529552102 L 48.07068257895472 -2.832245327642923 L 48.22387105148902 -2.4927630821674596 L 48.37048449156275 -2.1805365794921268 L 48.510566749752655 -1.894762269212037 L 48.644159006287246 -1.6345587836797344 L 48.771299892083775 -1.398971777243496 L 48.89202560044824 -1.1869790756767356 L 49.006369990107565 -0.9974961266296721 L 49.11436468017681 -0.8293817426640036 L 49.216039137606224 -0.681444129642999 L 49.31142075759878 -0.5524471950950454 L 49.40053493744128 -0.44111713385497126 L 49.483405144148286 -0.34614929211731427 L 49.56005297627791 -0.2662153164574983 L 49.63049822024273 -0.19997060206666104 L 49.69475890140535 -0.14606206546397224 L 49.7528513302177 -0.10313628300312269 L 49.80479014363481 -0.0698480604385703 L 49.850588342007754 -0.04486953567261206 L 49.89025732163584 -0.02689997582972861 L 49.92380690313551 -0.014676529283331761 L 49.9512453557617 -0.006986372418588782 L 49.97257941779748 -0.002681043640609721 L 49.98781431310791 -0.0006945452582195794 L 49.99695376393593 -0.00006894261185628201 Z" stroke="#7e7f9a" fill="#ee9321"/></svg>
