<svg data-v-d1d3d0d7="" id="superellipse" viewBox="-60 -60 120 120" xmlns="http://www.w3.org/2000/svg" version="1.1" style="transform: rotate(0deg); stroke-width: 4px;"><path d="M 50 0 L 49.994923043000064 3.3641360425740694 L 49.979692171790816 5.3396908502705624 L 49.95430738448639 6.9957902543972965 L 49.91876867374675 8.472788196095895 L 49.87307602046435 9.82880404157442 L 49.81722938488946 11.094976365216416 L 49.75122869515772 12.29040851777072 L 49.6750738331728 13.427862135261687 L 49.58876461778556 14.516379004891833 L 49.49230078519964 15.56264787215325 L 49.38568196652107 16.571782867561346 L 49.2689076623564 17.547797384670474 L 49.141977214350554 18.493908007588537 L 49.0048897735406 19.41273780529488 L 48.857644265386284 20.30645710405253 L 48.70023935132144 21.176883838759455 L 48.53267338665196 22.025556880471154 L 48.354944374606646 22.853790771610928 L 48.16704991632597 23.66271734864455 L 47.96898715655008 24.453317914389103 L 47.76075272474225 25.22644846799114 L 47.54234267135593 25.98285974772513 L 47.313752398922446 26.723213338752753 L 47.07497658760276 27.448094754673935 L 46.826009114808905 28.15802416285777 L 46.56684296845896 28.853465254479016 L 46.29747015338327 29.53483263862201 L 46.017881590347876 30.20249805114367 L 45.72806700710338 30.856795603456167 L 45.42801482080349 31.49802624737183 L 45.11771201106463 32.12646159507731 L 44.79714398285737 32.74234720497031 L 44.4662944183288 33.345905422232256 L 44.12514511655187 33.93733784599359 L 43.773675820081294 34.516827481591434 L 43.41186402706317 35.0845406258544 L 43.039684787495815 35.640628524929866 L 42.657110482067786 36.185228837415664 L 42.26411058180422 36.7184669301041 L 41.86065138652947 37.240457029215946 L 41.44669573989719 37.75130324638255 L 41.02220271844465 38.25110049566069 L 40.58712729178801 38.73993531540948 L 40.14141995068113 39.217886606821914 L 39.68502629920499 39.685026299204985 L 39.217886606821914 40.14141995068113 L 38.73993531540948 40.587127291788 L 38.25110049566069 41.02220271844465 L 37.75130324638255 41.44669573989719 L 37.240457029215946 41.86065138652947 L 36.71846693010411 42.26411058180422 L 36.185228837415664 42.657110482067786 L 35.640628524929866 43.039684787495815 L 35.0845406258544 43.41186402706317 L 34.51682748159144 43.773675820081294 L 33.93733784599358 44.12514511655188 L 33.34590542223226 44.46629441832879 L 32.74234720497031 44.79714398285737 L 32.12646159507732 45.117712011064626 L 31.498026247371836 45.42801482080349 L 30.856795603456167 45.72806700710338 L 30.202498051143678 46.01788159034787 L 29.53483263862201 46.297470153383266 L 28.853465254479016 46.56684296845896 L 28.15802416285777 46.826009114808905 L 27.448094754673935 47.07497658760276 L 26.723213338752767 47.313752398922446 L 25.98285974772513 47.54234267135593 L 25.226448467991148 47.76075272474225 L 24.453317914389107 47.96898715655007 L 23.662717348644556 48.16704991632597 L 22.85379077161093 48.354944374606646 L 22.025556880471154 48.53267338665196 L 21.176883838759455 48.70023935132144 L 20.30645710405253 48.857644265386284 L 19.41273780529489 49.0048897735406 L 18.493908007588534 49.141977214350554 L 17.54779738467048 49.2689076623564 L 16.571782867561353 49.38568196652107 L 15.562647872153251 49.49230078519964 L 14.516379004891835 49.58876461778556 L 13.427862135261703 49.6750738331728 L 12.29040851777072 49.75122869515772 L 11.094976365216416 49.81722938488946 L 9.828804041574418 49.87307602046435 L 8.472788196095907 49.91876867374675 L 6.995790254397309 49.95430738448639 L 5.339690850270574 49.979692171790816 L 3.364136042574052 49.994923043000064 L 7.76766656990146e-10 50 L -3.3641360425740645 49.994923043000064 L -5.3396908502705385 49.979692171790816 L -6.995790254397279 49.95430738448639 L -8.472788196095896 49.91876867374675 L -9.828804041574427 49.87307602046435 L -11.094976365216407 49.81722938488946 L -12.290408517770713 49.75122869515772 L -13.42786213526168 49.6750738331728 L -14.51637900489184 49.58876461778555 L -15.562647872153246 49.49230078519964 L -16.571782867561346 49.38568196652107 L -17.547797384670464 49.2689076623564 L -18.493908007588526 49.141977214350554 L -19.41273780529488 49.0048897735406 L -20.306457104052537 48.857644265386284 L -21.17688383875945 48.70023935132144 L -22.025556880471147 48.53267338665196 L -22.853790771610928 48.35494437460665 L -23.662717348644538 48.16704991632597 L -24.453317914389103 47.96898715655008 L -25.22644846799114 47.76075272474225 L -25.98285974772513 47.54234267135593 L -26.72321333875275 47.313752398922446 L -27.448094754673928 47.07497658760277 L -28.158024162857764 46.82600911480891 L -28.853465254479023 46.56684296845895 L -29.534832638622007 46.29747015338327 L -30.20249805114366 46.017881590347876 L -30.85679560345616 45.728067007103384 L -31.498026247371826 45.42801482080349 L -32.126461595077316 45.11771201106463 L -32.7423472049703 44.79714398285737 L -33.345905422232256 44.46629441832879 L -33.937337845993575 44.12514511655188 L -34.51682748159143 43.7736758200813 L -35.0845406258544 43.41186402706317 L -35.640628524929866 43.039684787495815 L -36.185228837415664 42.657110482067786 L -36.7184669301041 42.26411058180422 L -37.240457029215946 41.86065138652947 L -37.75130324638256 41.44669573989718 L -38.25110049566069 41.02220271844465 L -38.739935315409475 40.58712729178801 L -39.21788660682191 40.14141995068115 L -39.685026299204985 39.68502629920499 L -40.14141995068113 39.21788660682191 L -40.587127291788 38.73993531540948 L -41.022202718444646 38.25110049566069 L -41.44669573989719 37.75130324638255 L -41.86065138652947 37.24045702921595 L -42.26411058180421 36.71846693010411 L -42.65711048206778 36.185228837415664 L -43.03968478749582 35.64062852492986 L -43.41186402706316 35.08454062585441 L -43.77367582008128 34.51682748159145 L -44.12514511655187 33.93733784599359 L -44.4662944183288 33.34590542223225 L -44.79714398285737 32.74234720497031 L -45.117712011064626 32.12646159507732 L -45.42801482080349 31.49802624737183 L -45.72806700710338 30.856795603456167 L -46.01788159034786 30.202498051143685 L -46.297470153383266 29.534832638622017 L -46.56684296845896 28.853465254479012 L -46.826009114808905 28.15802416285777 L -47.074976587602755 27.448094754673946 L -47.313752398922446 26.723213338752778 L -47.542342671355925 25.98285974772514 L -47.76075272474225 25.22644846799114 L -47.96898715655007 24.453317914389107 L -48.16704991632597 23.66271734864457 L -48.354944374606646 22.85379077161093 L -48.53267338665196 22.025556880471168 L -48.70023935132144 21.17688383875948 L -48.85764426538628 20.306457104052544 L -49.0048897735406 19.41273780529488 L -49.141977214350554 18.493908007588526 L -49.2689076623564 17.547797384670474 L -49.38568196652107 16.571782867561353 L -49.49230078519964 15.562647872153246 L -49.58876461778555 14.516379004891839 L -49.6750738331728 13.427862135261707 L -49.75122869515772 12.290408517770725 L -49.81722938488946 11.094976365216437 L -49.87307602046435 9.828804041574458 L -49.91876867374675 8.472788196095912 L -49.95430738448639 6.995790254397296 L -49.979692171790816 5.339690850270535 L -49.994923043000064 3.3641360425740596 L -50 1.2330402084399792e-9 L -49.994923043000064 -3.3641360425740285 L -49.979692171790816 -5.339690850270555 L -49.95430738448639 -6.995790254397273 L -49.91876867374675 -8.472788196095857 L -49.87307602046435 -9.828804041574404 L -49.81722938488946 -11.094976365216388 L -49.75122869515772 -12.29040851777074 L -49.6750738331728 -13.427862135261693 L -49.58876461778556 -14.51637900489182 L -49.49230078519964 -15.562647872153256 L -49.38568196652107 -16.571782867561343 L -49.2689076623564 -17.54779738467046 L -49.141977214350554 -18.493908007588537 L -49.0048897735406 -19.41273780529487 L -48.857644265386284 -20.306457104052512 L -48.70023935132144 -21.176883838759448 L -48.53267338665196 -22.025556880471132 L -48.354944374606646 -22.853790771610942 L -48.16704991632597 -23.662717348644556 L -47.96898715655008 -24.4533179143891 L -47.76075272474225 -25.226448467991148 L -47.54234267135593 -25.98285974772513 L -47.313752398922446 -26.72321333875275 L -47.07497658760277 -27.448094754673917 L -46.82600911480891 -28.158024162857764 L -46.56684296845896 -28.853465254479005 L -46.29747015338328 -29.53483263862199 L -46.01788159034787 -30.202498051143678 L -45.728067007103384 -30.85679560345616 L -45.42801482080349 -31.498026247371836 L -45.11771201106463 -32.12646159507731 L -44.79714398285737 -32.7423472049703 L -44.4662944183288 -33.345905422232256 L -44.12514511655188 -33.937337845993575 L -43.7736758200813 -34.51682748159143 L -43.411864027063174 -35.0845406258544 L -43.03968478749583 -35.64062852492985 L -42.657110482067786 -36.18522883741564 L -42.26411058180422 -36.71846693010411 L -41.86065138652947 -37.240457029215946 L -41.44669573989718 -37.751303246382555 L -41.02220271844465 -38.25110049566069 L -40.58712729178801 -38.739935315409475 L -40.14141995068113 -39.217886606821914 L -39.68502629920499 -39.685026299204985 L -39.21788660682193 -40.141419950681126 L -38.73993531540949 -40.587127291787986 L -38.25110049566069 -41.022202718444646 L -37.75130324638256 -41.44669573989717 L -37.24045702921595 -41.86065138652947 L -36.718466930104086 -42.264110581804225 L -36.18522883741565 -42.657110482067786 L -35.640628524929866 -43.039684787495815 L -35.08454062585441 -43.41186402706316 L -34.51682748159145 -43.77367582008128 L -33.937337845993596 -44.12514511655187 L -33.34590542223225 -44.4662944183288 L -32.742347204970315 -44.79714398285737 L -32.12646159507733 -45.11771201106462 L -31.498026247371847 -45.42801482080348 L -30.856795603456156 -45.72806700710339 L -30.20249805114367 -46.017881590347876 L -29.534832638622017 -46.297470153383266 L -28.853465254479033 -46.56684296845895 L -28.158024162857792 -46.8260091148089 L -27.448094754673928 -47.07497658760277 L -26.72321333875276 -47.313752398922446 L -25.98285974772514 -47.542342671355925 L -25.226448467991165 -47.76075272474224 L -24.45331791438913 -47.968987156550064 L -23.66271734864455 -48.16704991632597 L -22.85379077161094 -48.354944374606646 L -22.02555688047117 -48.53267338665195 L -21.17688383875944 -48.70023935132145 L -20.306457104052527 -48.857644265386284 L -19.41273780529488 -49.0048897735406 L -18.49390800758855 -49.141977214350554 L -17.5477973846705 -49.2689076623564 L -16.571782867561385 -49.38568196652106 L -15.56264787215325 -49.49230078519964 L -14.51637900489184 -49.58876461778555 L -13.427862135261654 -49.6750738331728 L -12.2904085177707 -49.75122869515772 L -11.09497636521641 -49.81722938488946 L -9.828804041574427 -49.87307602046435 L -8.472788196095918 -49.91876867374675 L -6.99579025439734 -49.95430738448639 L -5.339690850270632 -49.979692171790816 L -3.364136042574067 -49.994923043000064 L -1.6157397574913097e-9 -50 L 3.36413604257402 -49.994923043000064 L 5.3396908502705935 -49.979692171790816 L 6.995790254397308 -49.95430738448639 L 8.472788196095888 -49.91876867374675 L 9.8288040415744 -49.87307602046435 L 11.094976365216382 -49.81722938488946 L 12.290408517770734 -49.75122869515772 L 13.42786213526169 -49.6750738331728 L 14.516379004891819 -49.58876461778556 L 15.562647872153226 -49.492300785199646 L 16.571782867561314 -49.38568196652107 L 17.54779738467043 -49.268907662356405 L 18.493908007588534 -49.141977214350554 L 19.412737805294867 -49.0048897735406 L 20.30645710405255 -48.85764426538628 L 21.176883838759466 -48.70023935132144 L 22.02555688047115 -48.53267338665196 L 22.85379077161092 -48.35494437460665 L 23.66271734864453 -48.16704991632598 L 24.453317914389075 -47.96898715655008 L 25.22644846799111 -47.760752724742254 L 25.98285974772513 -47.54234267135593 L 26.723213338752743 -47.31375239892245 L 27.448094754673953 -47.074976587602755 L 28.158024162857775 -46.826009114808905 L 28.853465254479016 -46.56684296845896 L 29.534832638622007 -46.29747015338327 L 30.202498051143657 -46.017881590347876 L 30.85679560345614 -45.72806700710339 L 31.498026247371836 -45.42801482080349 L 32.12646159507731 -45.11771201106463 L 32.7423472049703 -44.79714398285737 L 33.345905422232235 -44.46629441832881 L 33.937337845993554 -44.12514511655189 L 34.516827481591434 -43.773675820081294 L 35.084540625854395 -43.411864027063174 L 35.640628524929845 -43.03968478749583 L 36.18522883741567 -42.65711048206777 L 36.71846693010411 -42.26411058180422 L 37.240457029215946 -41.860651386529476 L 37.75130324638254 -41.446695739897194 L 38.251100495660666 -41.02220271844467 L 38.739935315409454 -40.58712729178802 L 39.217886606821885 -40.141419950681154 L 39.685026299204985 -39.68502629920499 L 40.141419950681126 -39.21788660682193 L 40.58712729178801 -38.73993531540947 L 41.02220271844465 -38.25110049566068 L 41.44669573989718 -37.751303246382555 L 41.86065138652946 -37.24045702921595 L 42.2641105818042 -36.718466930104114 L 42.657110482067765 -36.185228837415686 L 43.039684787495815 -35.640628524929866 L 43.41186402706316 -35.08454062585441 L 43.77367582008128 -34.51682748159145 L 44.12514511655187 -33.9373378459936 L 44.4662944183288 -33.34590542223225 L 44.79714398285735 -32.74234720497034 L 45.11771201106462 -32.12646159507733 L 45.42801482080348 -31.498026247371847 L 45.728067007103384 -30.856795603456156 L 46.01788159034787 -30.20249805114367 L 46.297470153383266 -29.53483263862202 L 46.56684296845896 -28.853465254478998 L 46.8260091148089 -28.158024162857792 L 47.07497658760277 -27.448094754673935 L 47.31375239892243 -26.7232133387528 L 47.542342671355925 -25.982859747725147 L 47.76075272474224 -25.226448467991165 L 47.96898715655008 -24.453317914389096 L 48.16704991632596 -23.66271734864459 L 48.354944374606646 -22.853790771610942 L 48.532673386651965 -22.02555688047113 L 48.70023935132144 -21.176883838759487 L 48.857644265386284 -20.306457104052527 L 49.0048897735406 -19.41273780529489 L 49.141977214350554 -18.493908007588555 L 49.2689076623564 -17.547797384670506 L 49.38568196652107 -16.57178286756134 L 49.49230078519963 -15.562647872153304 L 49.58876461778555 -14.516379004891848 L 49.6750738331728 -13.427862135261714 L 49.75122869515772 -12.290408517770764 L 49.81722938488946 -11.094976365216414 L 49.87307602046435 -9.828804041574433 L 49.91876867374675 -8.472788196095852 L 49.95430738448639 -6.995790254397345 L 49.979692171790816 -5.339690850270547 L 49.994923043000064 -3.3641360425741897 Z" stroke="#fff2f2" fill="#8ea7e9"/></svg>
