<svg data-v-d1d3d0d7="" id="superellipse" viewBox="-60 -60 120 120" xmlns="http://www.w3.org/2000/svg" version="1.1" style="transform: rotate(0deg); stroke-width: 0.5px;"><path d="M 50 0 L 49.99337798449878 1.4796143753404094 L 49.973513165734985 2.703063410407588 L 49.94040922615652 3.844883543651925 L 49.894072300602396 4.936183826917964 L 49.83451097243544 5.990847608975176 L 49.76173626811586 7.016661023836604 L 49.67576165020336 8.018546121522572 L 49.57660300877183 8.999854454125275 L 49.46427865121666 9.962985965867635 L 49.338809290431165 10.909721962532167 L 49.200218031323985 11.841419926284129 L 49.04853035564509 12.759134943806256 L 48.88377410508381 13.663699240224556 L 48.7059794625966 14.555776398205506 L 48.51517893191772 15.435899558856464 L 48.31140731519977 16.30449909243314 L 48.09470168872538 17.161923120182646 L 47.86510137662426 18.008453047482153 L 47.62264792252295 18.844315531831004 L 47.3673850590467 19.669691849462794 L 47.099358675084154 20.48472532865933 L 46.81861678071636 21.289527322652766 L 46.52520946970098 22.08418206312102 L 46.21918887939161 22.868750644313433 L 45.90060914795902 23.643274323919076 L 45.56952636876766 24.40777728110825 L 45.22599854174507 25.162268939031367 L 44.87008552156476 25.906745934671445 L 44.501848962443916 26.641193800773006 L 44.12135225933619 27.365588410867964 L 43.728660485275576 28.079897227975852 L 43.32384032460107 28.78408038951642 L 42.906960001761334 29.478091654726317 L 42.4780892053652 30.16187923597598 L 42.037299007105375 30.835386531515063 L 41.58466177513981 31.498552774095888 L 41.1202510814664 32.151313607455876 L 40.64414160277114 32.79360160064817 L 40.15640901416692 33.42534670859171 L 39.65712987516805 34.04647668589068 L 39.146381507163724 34.65691745988772 L 38.62424186155867 35.256593468019105 L 38.090789377641585 35.84542796379589 L 37.54610282911618 36.42334329511521 L 36.9902611580859 36.99026115808589 L 36.42334329511521 37.54610282911618 L 35.84542796379589 38.090789377641585 L 35.256593468019105 38.62424186155867 L 34.65691745988772 39.14638150716372 L 34.04647668589069 39.65712987516805 L 33.42534670859172 40.15640901416691 L 32.793601600648174 40.64414160277114 L 32.151313607455876 41.1202510814664 L 31.498552774095888 41.58466177513981 L 30.835386531515073 42.037299007105375 L 30.161879235975974 42.47808920536521 L 29.478091654726324 42.90696000176133 L 28.78408038951642 43.32384032460107 L 28.079897227975863 43.72866048527557 L 27.365588410867968 44.121352259336184 L 26.641193800773006 44.501848962443916 L 25.906745934671445 44.870085521564754 L 25.162268939031367 45.225998541745064 L 24.407777281108253 45.56952636876766 L 23.643274323919076 45.90060914795902 L 22.868750644313437 46.21918887939161 L 22.08418206312103 46.52520946970098 L 21.289527322652763 46.81861678071636 L 20.484725328659334 47.099358675084154 L 19.6696918494628 47.3673850590467 L 18.84431553183101 47.62264792252295 L 18.00845304748216 47.86510137662426 L 17.161923120182646 48.09470168872538 L 16.30449909243314 48.31140731519977 L 15.435899558856464 48.51517893191772 L 14.555776398205515 48.7059794625966 L 13.66369924022455 48.88377410508381 L 12.759134943806261 49.048530355645084 L 11.841419926284134 49.200218031323985 L 10.909721962532172 49.338809290431165 L 9.962985965867638 49.46427865121666 L 8.99985445412529 49.576603008771826 L 8.018546121522574 49.67576165020336 L 7.016661023836604 49.76173626811586 L 5.990847608975174 49.83451097243544 L 4.936183826917973 49.894072300602396 L 3.8448835436519335 49.94040922615652 L 2.7030634104075952 49.973513165734985 L 1.4796143753403994 49.99337798449878 L 3.987424636639088e-13 50 L -1.479614375340407 49.99337798449878 L -2.703063410407572 49.973513165734985 L -3.8448835436519113 49.94040922615652 L -4.936183826917966 49.894072300602396 L -5.99084760897518 49.83451097243544 L -7.016661023836597 49.76173626811586 L -8.018546121522567 49.67576165020337 L -8.999854454125272 49.57660300877183 L -9.962985965867645 49.46427865121665 L -10.909721962532167 49.338809290431165 L -11.841419926284129 49.200218031323985 L -12.759134943806243 49.04853035564509 L -13.663699240224544 48.88377410508381 L -14.555776398205506 48.7059794625966 L -15.43589955885647 48.51517893191772 L -16.304499092433137 48.31140731519977 L -17.16192312018264 48.09470168872539 L -18.008453047482153 47.86510137662427 L -18.844315531830993 47.62264792252295 L -19.669691849462794 47.3673850590467 L -20.48472532865933 47.099358675084154 L -21.289527322652766 46.81861678071636 L -22.084182063121013 46.52520946970098 L -22.86875064431343 46.219188879391616 L -23.643274323919073 45.900609147959024 L -24.407777281108256 45.569526368767654 L -25.162268939031364 45.22599854174507 L -25.906745934671427 44.87008552156476 L -26.641193800773 44.501848962443916 L -27.365588410867957 44.12135225933619 L -28.07989722797586 43.728660485275576 L -28.784080389516415 43.32384032460107 L -29.478091654726317 42.90696000176133 L -30.161879235975974 42.47808920536521 L -30.83538653151506 42.03729900710538 L -31.498552774095884 41.58466177513981 L -32.151313607455876 41.12025108146639 L -32.793601600648174 40.64414160277114 L -33.42534670859171 40.15640901416692 L -34.04647668589069 39.65712987516805 L -34.65691745988774 39.14638150716371 L -35.256593468019105 38.62424186155867 L -35.84542796379589 38.090789377641585 L -36.423343295115195 37.546102829116194 L -36.99026115808589 36.9902611580859 L -37.54610282911618 36.42334329511521 L -38.090789377641585 35.8454279637959 L -38.62424186155866 35.25659346801911 L -39.14638150716372 34.65691745988772 L -39.657129875168046 34.046476685890696 L -40.156409014166904 33.42534670859173 L -40.64414160277114 32.793601600648174 L -41.1202510814664 32.15131360745587 L -41.5846617751398 31.498552774095895 L -42.03729900710537 30.83538653151508 L -42.4780892053652 30.16187923597598 L -42.90696000176134 29.478091654726313 L -43.32384032460107 28.78408038951642 L -43.72866048527557 28.079897227975863 L -44.12135225933619 27.365588410867964 L -44.501848962443916 26.64119380077301 L -44.870085521564754 25.906745934671456 L -45.225998541745064 25.162268939031375 L -45.56952636876766 24.407777281108245 L -45.90060914795902 23.64327432391908 L -46.2191888793916 22.868750644313447 L -46.525209469700975 22.08418206312104 L -46.818616780716354 21.289527322652777 L -47.099358675084154 20.484725328659326 L -47.3673850590467 19.6696918494628 L -47.62264792252295 18.844315531831025 L -47.86510137662426 18.008453047482163 L -48.09470168872538 17.16192312018266 L -48.31140731519976 16.30449909243317 L -48.51517893191771 15.43589955885648 L -48.7059794625966 14.555776398205506 L -48.88377410508381 13.663699240224544 L -49.04853035564509 12.759134943806256 L -49.200218031323985 11.841419926284138 L -49.338809290431165 10.909721962532165 L -49.46427865121665 9.962985965867642 L -49.576603008771826 8.999854454125291 L -49.67576165020336 8.018546121522578 L -49.76173626811586 7.016661023836621 L -49.83451097243544 5.990847608975204 L -49.894072300602396 4.936183826917978 L -49.94040922615652 3.8448835436519238 L -49.973513165734985 2.70306341040757 L -49.99337798449878 1.479614375340404 L -50 7.285472135244718e-13 L -49.99337798449878 -1.4796143753403859 L -49.973513165734985 -2.7030634104075837 L -49.94040922615652 -3.8448835436519078 L -49.894072300602396 -4.936183826917935 L -49.83451097243544 -5.990847608975162 L -49.76173626811586 -7.016661023836581 L -49.67576165020336 -8.018546121522588 L -49.576603008771826 -8.99985445412528 L -49.46427865121666 -9.962985965867627 L -49.338809290431165 -10.909721962532174 L -49.200218031323985 -11.841419926284123 L -49.04853035564509 -12.759134943806242 L -48.88377410508381 -13.663699240224553 L -48.7059794625966 -14.555776398205492 L -48.51517893191772 -15.435899558856445 L -48.31140731519977 -16.304499092433133 L -48.09470168872539 -17.161923120182625 L -47.86510137662426 -18.008453047482174 L -47.62264792252295 -18.84431553183101 L -47.3673850590467 -19.66969184946279 L -47.099358675084154 -20.484725328659337 L -46.81861678071636 -21.289527322652766 L -46.52520946970098 -22.08418206312101 L -46.21918887939162 -22.86875064431342 L -45.900609147959024 -23.64327432391907 L -45.56952636876767 -24.407777281108235 L -45.225998541745085 -25.16226893903134 L -44.870085521564754 -25.906745934671445 L -44.501848962443916 -26.641193800773 L -44.121352259336184 -27.365588410867968 L -43.728660485275576 -28.079897227975852 L -43.32384032460107 -28.784080389516415 L -42.906960001761334 -29.478091654726317 L -42.47808920536521 -30.161879235975974 L -42.03729900710538 -30.83538653151506 L -41.58466177513981 -31.498552774095884 L -41.12025108146641 -32.15131360745587 L -40.64414160277116 -32.79360160064815 L -40.15640901416691 -33.42534670859173 L -39.65712987516805 -34.04647668589068 L -39.14638150716371 -34.65691745988773 L -38.62424186155867 -35.256593468019105 L -38.090789377641585 -35.84542796379589 L -37.54610282911618 -36.42334329511521 L -36.99026115808591 -36.99026115808589 L -36.423343295115224 -37.546102829116165 L -35.84542796379592 -38.09078937764156 L -35.25659346801911 -38.62424186155866 L -34.656917459887744 -39.1463815071637 L -34.046476685890696 -39.657129875168046 L -33.42534670859171 -40.156409014166925 L -32.79360160064817 -40.64414160277116 L -32.151313607455876 -41.1202510814664 L -31.498552774095895 -41.5846617751398 L -30.83538653151508 -42.03729900710537 L -30.161879235975995 -42.47808920536519 L -29.478091654726313 -42.906960001761334 L -28.784080389516426 -43.32384032460107 L -28.07989722797587 -43.72866048527557 L -27.365588410867986 -44.12135225933617 L -26.641193800772996 -44.50184896244392 L -25.906745934671438 -44.87008552156476 L -25.162268939031375 -45.225998541745064 L -24.407777281108267 -45.56952636876765 L -23.6432743239191 -45.900609147959 L -22.868750644313433 -46.219188879391616 L -22.084182063121023 -46.52520946970098 L -21.28952732265278 -46.818616780716354 L -20.48472532865935 -47.099358675084154 L -19.66969184946283 -47.36738505904669 L -18.844315531831004 -47.62264792252295 L -18.008453047482163 -47.86510137662426 L -17.161923120182664 -48.09470168872538 L -16.30449909243313 -48.31140731519978 L -15.435899558856459 -48.51517893191772 L -14.555776398205506 -48.7059794625966 L -13.66369924022457 -48.8837741050838 L -12.75913494380628 -49.048530355645084 L -11.841419926284164 -49.20021803132398 L -10.909721962532167 -49.338809290431165 L -9.962985965867645 -49.46427865121665 L -8.999854454125247 -49.57660300877183 L -8.018546121522556 -49.67576165020337 L -7.0166610238365985 -49.76173626811586 L -5.990847608975181 -49.83451097243544 L -4.936183826917981 -49.894072300602396 L -3.844883543651955 -49.94040922615652 L -2.703063410407634 -49.97351316573498 L -1.4796143753404083 -49.99337798449878 L -1.0365267998485807e-12 -50 L 1.4796143753403812 -49.99337798449878 L 2.7030634104076094 -49.973513165734985 L 3.844883543651932 -49.94040922615652 L 4.936183826917959 -49.894072300602396 L 5.99084760897516 -49.83451097243544 L 7.016661023836577 -49.76173626811586 L 8.018546121522585 -49.67576165020336 L 8.999854454125277 -49.57660300877183 L 9.962985965867624 -49.46427865121666 L 10.90972196253215 -49.33880929043117 L 11.841419926284098 -49.20021803132399 L 12.759134943806213 -49.0485303556451 L 13.66369924022455 -48.88377410508381 L 14.555776398205488 -48.7059794625966 L 15.435899558856486 -48.51517893191771 L 16.304499092433154 -48.311407315199766 L 17.161923120182642 -48.09470168872538 L 18.00845304748215 -47.86510137662427 L 18.844315531830986 -47.62264792252295 L 19.669691849462765 -47.367385059046704 L 20.48472532865929 -47.099358675084176 L 21.289527322652763 -46.81861678071636 L 22.08418206312101 -46.52520946970099 L 22.868750644313455 -46.2191888793916 L 23.643274323919087 -45.90060914795902 L 24.40777728110825 -45.56952636876766 L 25.162268939031364 -45.22599854174507 L 25.906745934671427 -44.87008552156476 L 26.641193800772978 -44.50184896244392 L 27.365588410867968 -44.121352259336184 L 28.079897227975852 -43.728660485275576 L 28.784080389516408 -43.32384032460108 L 29.478091654726295 -42.90696000176135 L 30.161879235975952 -42.47808920536522 L 30.835386531515063 -42.037299007105375 L 31.498552774095877 -41.58466177513981 L 32.151313607455855 -41.12025108146641 L 32.79360160064818 -40.644141602771136 L 33.42534670859172 -40.15640901416691 L 34.04647668589068 -39.65712987516805 L 34.656917459887715 -39.14638150716373 L 35.25659346801909 -38.62424186155869 L 35.84542796379587 -38.09078937764161 L 36.423343295115174 -37.54610282911621 L 36.99026115808589 -36.99026115808591 L 37.546102829116165 -36.423343295115224 L 38.09078937764159 -35.845427963795885 L 38.62424186155867 -35.256593468019105 L 39.14638150716371 -34.65691745988773 L 39.65712987516804 -34.046476685890696 L 40.156409014166904 -33.42534670859173 L 40.64414160277113 -32.793601600648195 L 41.1202510814664 -32.151313607455876 L 41.5846617751398 -31.4985527740959 L 42.03729900710537 -30.835386531515084 L 42.47808920536519 -30.161879235976002 L 42.906960001761334 -29.478091654726313 L 43.32384032460104 -28.784080389516465 L 43.72866048527557 -28.07989722797587 L 44.12135225933617 -27.365588410867986 L 44.501848962443916 -26.641193800772996 L 44.870085521564754 -25.906745934671445 L 45.225998541745064 -25.162268939031375 L 45.56952636876767 -24.40777728110823 L 45.900609147959 -23.643274323919105 L 46.219188879391616 -22.868750644313433 L 46.52520946970096 -22.08418206312107 L 46.818616780716354 -21.28952732265278 L 47.09935867508415 -20.484725328659355 L 47.3673850590467 -19.66969184946279 L 47.62264792252294 -18.84431553183105 L 47.86510137662426 -18.00845304748217 L 48.094701688725394 -17.16192312018262 L 48.31140731519976 -16.304499092433172 L 48.51517893191772 -15.43589955885646 L 48.7059794625966 -14.555776398205511 L 48.8837741050838 -13.663699240224572 L 49.048530355645084 -12.759134943806282 L 49.200218031323985 -11.84141992628412 L 49.338809290431165 -10.909721962532219 L 49.46427865121665 -9.962985965867649 L 49.576603008771826 -8.9998544541253 L 49.67576165020336 -8.01854612152261 L 49.76173626811586 -7.016661023836603 L 49.83451097243544 -5.990847608975185 L 49.894072300602396 -4.936183826917931 L 49.94040922615652 -3.8448835436519593 L 49.973513165734985 -2.7030634104075784 L 49.99337798449878 -1.4796143753404785 Z" stroke="#c3c1a4" fill="#c3c1a4"/></svg>
