<svg data-v-d1d3d0d7="" id="superellipse" viewBox="-60 -60 120 120" xmlns="http://www.w3.org/2000/svg" version="1.1" style="transform: rotate(45deg); stroke-width: 0px;"><path d="M 50 0 L 49.983078814670264 0.006194151495535706 L 49.93233930968168 0.0288928490450013 L 49.847853601292194 0.07109830660058382 L 49.72974176083928 0.13463495303513254 L 49.57817163128995 0.22083720660865247 L 49.393358570788045 0.33074345690292273 L 49.17556512357528 0.46518358893015765 L 48.9251006187688 0.6248266846165699 L 48.642320697584175 0.8102100982129105 L 48.327626769697254 1.021758579897314 L 47.98146539954201 1.2597975832865753 L 47.60432762344353 1.524562947167217 L 47.196748198586974 1.8162082049155461 L 46.75930478492156 2.134810283132588 L 46.29261706119673 2.4803740747091565 L 45.79734577642272 2.8528362077191174 L 45.27419173814145 3.2520682299964654 L 44.7238947389839 3.6778793639148404 L 44.14723242307962 4.130018942486088 L 43.545019093968996 4.608178608257586 L 42.918104465752606 5.1119943357566635 L 42.267372359291876 5.6410483234154585 L 41.59373934535219 6.194870790119078 L 40.89815333665364 6.772941703524323 L 40.18159213086485 7.374692461278637 L 39.445061906641676 7.999507541674841 L 38.68959567487632 8.646726136723586 L 37.91625168738097 9.315643777842922 L 37.126111805285134 10.005513962160855 L 36.32027982947712 10.715549785663407 L 35.49987979546581 11.444925587995044 L 34.66605423508165 12.19277861255554 L 33.819962407472005 12.958210684580312 L 32.96277850187868 13.740289909097076 L 32.09568981471257 14.538052389987776 L 31.219894903461498 15.350503970825866 L 30.336601719984102 16.176621997684872 L 29.447025725752408 17.015357103710812 L 28.55238799160995 17.86563501490434 L 27.65391328461045 18.72635837626065 L 26.752828144492387 19.596408597157538 L 25.850358952329255 20.47464771465826 L 24.947729993871537 21.359920273201677 L 24.046161520063944 22.25105521898322 L 23.146867807182264 23.146867807182257 L 22.251055218983225 24.046161520063936 L 21.359920273201677 24.94772999387153 L 20.47464771465826 25.850358952329255 L 19.59640859715755 26.752828144492373 L 18.72635837626066 27.65391328461045 L 17.865635014904345 28.552387991609944 L 17.01535710371082 29.447025725752408 L 16.17662199768488 30.336601719984102 L 15.350503970825866 31.219894903461498 L 14.538052389987783 32.09568981471257 L 13.740289909097067 32.962778501878695 L 12.958210684580319 33.81996240747199 L 12.19277861255554 34.66605423508165 L 11.444925587995055 35.4998797954658 L 10.715549785663415 36.32027982947711 L 10.005513962160856 37.126111805285134 L 9.315643777842924 37.91625168738096 L 8.64672613672359 38.68959567487631 L 7.999507541674842 39.445061906641676 L 7.374692461278637 40.18159213086485 L 6.772941703524324 40.89815333665364 L 6.194870790119085 41.593739345352176 L 5.641048323415456 42.267372359291876 L 5.111994335756667 42.918104465752606 L 4.608178608257589 43.54501909396898 L 4.130018942486091 44.147232423079615 L 3.6778793639148417 44.7238947389839 L 3.2520682299964654 45.27419173814145 L 2.8528362077191174 45.79734577642272 L 2.4803740747091565 46.29261706119673 L 2.1348102831325915 46.75930478492156 L 1.8162082049155446 47.196748198586974 L 1.5245629471672193 47.604327623443524 L 1.2597975832865769 47.98146539954201 L 1.021758579897315 48.327626769697254 L 0.810210098212911 48.642320697584175 L 0.6248266846165724 48.92510061876879 L 0.46518358893015777 49.17556512357528 L 0.33074345690292273 49.393358570788045 L 0.22083720660865236 49.57817163128995 L 0.13463495303513318 49.72974176083928 L 0.07109830660058424 49.847853601292194 L 0.028892849045001504 49.93233930968168 L 0.006194151495535601 49.983078814670264 L 4.67776686631779e-35 50 L -0.0061941514955356795 49.983078814670264 L -0.028892849045000866 49.93233930968168 L -0.07109830660058318 49.847853601292194 L -0.13463495303513265 49.72974176083928 L -0.22083720660865286 49.57817163128995 L -0.33074345690292184 49.39335857078806 L -0.4651835889301567 49.175565123575296 L -0.6248266846165691 48.9251006187688 L -0.8102100982129123 48.642320697584154 L -1.0217585798973134 48.327626769697254 L -1.2597975832865753 47.98146539954201 L -1.5245629471672137 47.60432762344353 L -1.8162082049155426 47.196748198586974 L -2.1348102831325892 46.75930478492156 L -2.4803740747091587 46.29261706119673 L -2.8528362077191143 45.79734577642272 L -3.2520682299964623 45.274191738141454 L -3.677879363914839 44.72389473898391 L -4.130018942486082 44.14723242307962 L -4.608178608257586 43.545019093968996 L -5.1119943357566635 42.918104465752606 L -5.641048323415459 42.267372359291876 L -6.194870790119073 41.59373934535219 L -6.772941703524318 40.89815333665365 L -7.374692461278633 40.181592130864864 L -7.999507541674846 39.44506190664166 L -8.646726136723585 38.68959567487632 L -9.315643777842912 37.91625168738098 L -10.005513962160851 37.12611180528514 L -10.715549785663399 36.32027982947712 L -11.44492558799505 35.49987979546581 L -12.192778612555534 34.66605423508166 L -12.958210684580312 33.81996240747199 L -13.740289909097061 32.962778501878695 L -14.538052389987763 32.09568981471259 L -15.35050397082586 31.219894903461498 L -16.17662199768488 30.336601719984092 L -17.01535710371082 29.447025725752408 L -17.86563501490433 28.55238799160996 L -18.72635837626066 27.65391328461045 L -19.59640859715756 26.75282814449236 L -20.47464771465826 25.850358952329255 L -21.35992027320167 24.947729993871537 L -22.2510552189832 24.04616152006396 L -23.146867807182257 23.146867807182264 L -24.046161520063944 22.25105521898321 L -24.94772999387153 21.359920273201684 L -25.850358952329238 20.474647714658268 L -26.752828144492373 19.59640859715755 L -27.653913284610443 18.726358376260666 L -28.552387991609933 17.865635014904356 L -29.447025725752397 17.015357103710826 L -30.336601719984113 16.176621997684865 L -31.219894903461487 15.350503970825871 L -32.09568981471255 14.538052389987794 L -32.96277850187868 13.740289909097076 L -33.81996240747201 12.958210684580306 L -34.66605423508165 12.19277861255554 L -35.4998797954658 11.444925587995055 L -36.32027982947712 10.715549785663407 L -37.126111805285134 10.00551396216086 L -37.91625168738095 9.315643777842935 L -38.68959567487631 8.646726136723593 L -39.445061906641676 7.999507541674836 L -40.18159213086485 7.37469246127864 L -40.89815333665363 6.7729417035243324 L -41.59373934535216 6.194870790119093 L -42.26737235929187 5.641048323415466 L -42.918104465752606 5.111994335756662 L -43.54501909396898 4.6081786082575915 L -44.147232423079615 4.130018942486098 L -44.7238947389839 3.677879363914843 L -45.27419173814145 3.252068229996472 L -45.7973457764227 2.8528362077191285 L -46.29261706119671 2.4803740747091623 L -46.75930478492156 2.134810283132588 L -47.196748198586974 1.816208204915542 L -47.60432762344353 1.524562947167217 L -47.98146539954201 1.2597975832865778 L -48.327626769697254 1.0217585798973132 L -48.642320697584154 0.8102100982129117 L -48.92510061876879 0.624826684616573 L -49.17556512357528 0.4651835889301582 L -49.393358570788045 0.3307434569029247 L -49.57817163128995 0.22083720660865513 L -49.72974176083928 0.13463495303513348 L -49.847853601292194 0.07109830660058375 L -49.93233930968168 0.0288928490450008 L -49.983078814670264 0.006194151495535649 L -50 2.1827003559706687e-34 L -49.983078814670264 -0.006194151495535456 L -49.93233930968168 -0.028892849045001168 L -49.847853601292194 -0.07109830660058303 L -49.72974176083929 -0.1346349530351305 L -49.57817163128995 -0.22083720660865122 L -49.39335857078806 -0.3307434569029199 L -49.17556512357528 -0.46518358893015993 L -48.92510061876879 -0.6248266846165708 L -48.642320697584175 -0.8102100982129088 L -48.327626769697254 -1.0217585798973157 L -47.98146539954201 -1.259797583286574 L -47.60432762344353 -1.5245629471672129 L -47.196748198586974 -1.8162082049155455 L -46.75930478492156 -2.134810283132584 L -46.29261706119674 -2.480374074709148 L -45.79734577642272 -2.852836207719113 L -45.274191738141454 -3.252068229996456 L -44.7238947389839 -3.677879363914849 L -44.147232423079615 -4.130018942486091 L -43.545019093968996 -4.608178608257585 L -42.918104465752606 -5.111994335756669 L -42.267372359291876 -5.6410483234154585 L -41.59373934535219 -6.194870790119071 L -40.898153336653664 -6.77294170352431 L -40.181592130864864 -7.374692461278631 L -39.44506190664169 -7.999507541674827 L -38.689595674876344 -8.646726136723567 L -37.91625168738096 -9.315643777842924 L -37.12611180528514 -10.005513962160851 L -36.32027982947711 -10.715549785663415 L -35.49987979546581 -11.444925587995044 L -34.66605423508166 -12.192778612555534 L -33.819962407472005 -12.958210684580312 L -32.962778501878695 -13.740289909097061 L -32.09568981471259 -14.538052389987763 L -31.219894903461505 -15.35050397082586 L -30.33660171998412 -16.176621997684858 L -29.447025725752425 -17.01535710371079 L -28.552387991609944 -17.865635014904353 L -27.65391328461045 -18.72635837626065 L -26.75282814449237 -19.596408597157556 L -25.850358952329255 -20.47464771465826 L -24.947729993871537 -21.35992027320167 L -24.046161520063936 -22.251055218983225 L -23.14686780718227 -23.146867807182257 L -22.25105521898324 -24.04616152006392 L -21.35992027320171 -24.947729993871505 L -20.47464771465827 -25.850358952329238 L -19.59640859715757 -26.752828144492348 L -18.726358376260666 -27.653913284610443 L -17.865635014904324 -28.552387991609972 L -17.015357103710805 -29.44702572575241 L -16.176621997684872 -30.336601719984102 L -15.350503970825871 -31.219894903461487 L -14.538052389987794 -32.09568981471255 L -13.740289909097092 -32.96277850187866 L -12.958210684580306 -33.819962407472005 L -12.192778612555545 -34.66605423508165 L -11.444925587995062 -35.49987979546579 L -10.71554978566343 -36.32027982947709 L -10.005513962160844 -37.126111805285156 L -9.315643777842919 -37.91625168738097 L -8.646726136723595 -38.68959567487631 L -7.999507541674856 -39.445061906641655 L -7.374692461278657 -40.18159213086483 L -6.77294170352432 -40.89815333665365 L -6.194870790119081 -41.593739345352176 L -5.641048323415467 -42.26737235929187 L -5.111994335756678 -42.91810446575259 L -4.608178608257606 -43.545019093968975 L -4.130018942486088 -44.14723242307962 L -3.677879363914845 -44.7238947389839 L -3.2520682299964734 -45.27419173814143 L -2.8528362077191107 -45.79734577642274 L -2.480374074709154 -46.29261706119673 L -2.1348102831325892 -46.75930478492156 L -1.8162082049155506 -47.19674819858696 L -1.5245629471672246 -47.604327623443524 L -1.259797583286585 -47.981465399542 L -1.021758579897314 -48.327626769697254 L -0.8102100982129123 -48.642320697584154 L -0.624826684616565 -48.9251006187688 L -0.4651835889301551 -49.175565123575296 L -0.33074345690292206 -49.39335857078806 L -0.22083720660865297 -49.57817163128995 L -0.13463495303513373 -49.72974176083928 L -0.07109830660058526 -49.847853601292194 L -0.028892849045002552 -49.93233930968167 L -0.006194151495535696 -49.983078814670264 L -5.374128273701266e-34 -50 L 0.006194151495535405 -49.983078814670264 L 0.028892849045001875 -49.93233930968168 L 0.07109830660058418 -49.847853601292194 L 0.13463495303513215 -49.72974176083929 L 0.22083720660865092 -49.57817163128995 L 0.3307434569029194 -49.39335857078806 L 0.46518358893015943 -49.17556512357528 L 0.6248266846165702 -48.9251006187688 L 0.8102100982129082 -48.642320697584175 L 1.021758579897309 -48.32762676969727 L 1.2597975832865669 -47.981465399542024 L 1.5245629471672046 -47.604327623443545 L 1.8162082049155446 -47.196748198586974 L 2.134810283132583 -46.759304784921575 L 2.4803740747091645 -46.29261706119671 L 2.852836207719122 -45.797345776422716 L 3.252068229996464 -45.27419173814145 L 3.6778793639148355 -44.72389473898391 L 4.130018942486078 -44.147232423079636 L 4.608178608257569 -43.545019093969 L 5.11199433575664 -42.918104465752634 L 5.641048323415456 -42.267372359291876 L 6.19487079011907 -41.5937393453522 L 6.772941703524336 -40.89815333665363 L 7.374692461278644 -40.18159213086485 L 7.999507541674841 -39.445061906641676 L 8.646726136723583 -38.68959567487632 L 9.315643777842904 -37.91625168738098 L 10.00551396216083 -37.12611180528517 L 10.715549785663415 -36.32027982947711 L 11.444925587995044 -35.49987979546581 L 12.192778612555529 -34.666054235081674 L 12.95821068458029 -33.819962407472026 L 13.740289909097037 -32.96277850187872 L 14.538052389987776 -32.09568981471257 L 15.350503970825851 -31.219894903461505 L 16.176621997684855 -30.33660171998412 L 17.015357103710834 -29.447025725752386 L 17.865635014904345 -28.552387991609944 L 18.72635837626065 -27.65391328461046 L 19.596408597157534 -26.75282814449239 L 20.47464771465823 -25.850358952329284 L 21.359920273201645 -24.94772999387157 L 22.251055218983172 -24.046161520063986 L 23.146867807182247 -23.14686780718227 L 24.04616152006392 -22.25105521898324 L 24.947729993871544 -21.359920273201663 L 25.850358952329255 -20.47464771465825 L 26.75282814449237 -19.596408597157556 L 27.653913284610432 -18.72635837626067 L 28.55238799160993 -17.865635014904367 L 29.44702572575237 -17.015357103710855 L 30.336601719984102 -16.176621997684872 L 31.219894903461487 -15.35050397082588 L 32.09568981471255 -14.538052389987802 L 32.96277850187866 -13.740289909097097 L 33.819962407472005 -12.958210684580306 L 34.6660542350816 -12.192778612555585 L 35.49987979546579 -11.444925587995062 L 36.32027982947709 -10.71554978566343 L 37.12611180528514 -10.005513962160848 L 37.91625168738096 -9.315643777842922 L 38.68959567487631 -8.646726136723597 L 39.44506190664169 -7.9995075416748245 L 40.18159213086483 -7.374692461278659 L 40.89815333665365 -6.772941703524323 L 41.59373934535214 -6.194870790119113 L 42.26737235929187 -5.641048323415469 L 42.918104465752585 -5.1119943357566795 L 43.545019093968996 -4.608178608257583 L 44.147232423079586 -4.130018942486113 L 44.7238947389839 -3.6778793639148475 L 45.27419173814147 -3.2520682299964534 L 45.7973457764227 -2.852836207719131 L 46.29261706119673 -2.480374074709155 L 46.75930478492156 -2.134810283132591 L 47.19674819858696 -1.816208204915552 L 47.604327623443524 -1.524562947167226 L 47.98146539954201 -1.259797583286573 L 48.32762676969725 -1.021758579897326 L 48.642320697584154 -0.8102100982129132 L 48.92510061876879 -0.6248266846165744 L 49.17556512357528 -0.46518358893016304 L 49.393358570788045 -0.33074345690292245 L 49.57817163128995 -0.22083720660865336 L 49.72974176083929 -0.1346349530351302 L 49.847853601292194 -0.07109830660058546 L 49.93233930968168 -0.028892849045001032 L 49.983078814670264 -0.006194151495536446 Z" stroke="#7e7f9a" fill="#229c90"/></svg>
